<svg width="38" height="33" viewBox="0 0 38 33" fill="none" xmlns="http://www.w3.org/2000/svg">
<g clip-path="url(#clip0_414_8735)">
<path d="M6.72893 9.6177L14.1143 11.0576C14.2818 11.0893 14.4086 11.2161 14.4539 11.3701C14.4539 11.3791 15.8259 16.2423 15.8259 16.2423C15.8939 16.4914 15.758 16.7404 15.518 16.8038C15.3867 16.8401 15.2463 16.8129 15.1422 16.7404L6.51158 10.795C6.44366 10.7497 6.40744 10.6728 6.40291 10.6003C6.40291 10.5822 6.36668 9.90297 6.36668 9.90297C6.35763 9.74902 6.47989 9.61317 6.63384 9.60864C6.65648 9.60864 6.67912 9.60864 6.70176 9.60864H6.73346L6.72893 9.6177ZM6.92817 10.2833L6.89195 10.5958L6.78327 10.383L15.6403 15.9842L14.9565 16.4869L13.5845 11.6237L13.9241 11.9452L6.92817 10.2879V10.2833Z" fill="#4F4D4C"/>
<path d="M27.7306 7.75212L33.273 25.0586C33.3183 25.2035 33.2413 25.3575 33.0964 25.4027C32.956 25.448 32.8021 25.371 32.7568 25.2307L26.748 8.07814C26.6529 7.80645 26.7978 7.5076 27.0695 7.41251C27.3411 7.31742 27.64 7.46232 27.7351 7.734C27.7351 7.734 27.7351 7.74306 27.7351 7.74759L27.7306 7.75212Z" fill="#333333"/>
<path d="M6.85128 1.80227C6.41206 1.78416 5.87774 2.6762 6.20829 3.03392C6.49809 3.35089 7.48069 3.4324 7.5305 2.6445C7.5305 2.33659 7.35843 2.04679 7.05958 1.86567C6.97807 1.81586 6.90109 1.8068 6.85128 1.80227Z" fill="#333333"/>
<path d="M6.89208 9.50906C6.66567 9.37774 6.45738 9.36416 6.30795 9.45472L5.84155 9.72641C5.69212 9.81697 5.60156 9.99809 5.60156 10.2562C5.60156 10.7769 5.96834 11.4109 6.41662 11.669C6.69737 11.832 6.92377 11.7414 6.91472 11.7459L7.47168 11.4471C7.61658 11.3611 7.70714 11.1799 7.70714 10.9218C7.70714 10.4011 7.34036 9.76716 6.89208 9.50906Z" fill="#A0A0A0"/>
<path d="M9.89825 6.47971C8.88847 5.24806 6.29839 2.62627 3.40039 3.88509C4.33771 3.54095 5.5105 3.74472 6.70592 4.433C7.5889 4.94014 8.48094 5.71445 9.29601 6.72875C11.7774 9.8124 12.6151 13.9511 11.1752 15.9797C11.0439 16.1654 10.899 16.3193 10.745 16.4552C13.4166 14.3858 12.4747 9.84863 9.89825 6.47971Z" fill="#383838"/>
<path d="M10.9761 9.49082C10.555 8.53539 9.98895 7.59354 9.29615 6.73319C9.18747 6.59735 9.0788 6.47056 8.97012 6.34378C8.24562 5.51966 7.47132 4.87666 6.70606 4.43744C5.33857 3.64954 3.99825 3.49559 3.00659 4.07066L2.81641 4.17933C3.80354 3.60426 5.14839 3.75369 6.51588 4.54611C7.28113 4.98987 8.05544 5.62833 8.77994 6.45245C8.88862 6.57924 8.99729 6.70602 9.10597 6.84187C9.79877 7.70221 10.3648 8.64406 10.7859 9.59949C11.8772 12.0673 12.0221 14.6257 10.9851 16.0883C10.7542 16.4098 10.4825 16.6588 10.1746 16.84L10.3648 16.7313C10.6727 16.5502 10.9444 16.3011 11.1753 15.9796C12.2123 14.517 12.0674 11.9586 10.9761 9.49082Z" fill="#4F4F4F"/>
<path d="M9.1061 6.84184C8.29104 5.82754 7.399 5.05323 6.51601 4.54608C5.14852 3.75819 3.8082 3.60423 2.81654 4.1793C2.4724 4.38759 1.41735 5.02153 0.991705 6.57921C0.344184 8.93836 1.4581 12.4205 3.63613 14.8566C4.6459 15.9841 7.29938 18.4384 10.1747 16.8445C10.4826 16.6633 10.7543 16.4143 10.9853 16.0928C12.4252 14.0642 11.5875 9.92549 9.1061 6.84184ZM9.67664 15.8483C8.82989 17.0392 7.29485 17.0935 5.71906 16.1834C4.94476 15.7351 4.16139 15.0604 3.44595 14.1683C1.26792 11.465 0.534365 7.8335 1.79771 6.05847C2.64447 4.86758 4.1795 4.80871 5.75529 5.71886C6.5296 6.16715 7.30844 6.84184 8.02841 7.73388C10.2064 10.4372 10.94 14.0732 9.67664 15.8528V15.8483Z" fill="#383838"/>
<path d="M8.17333 7.52558C7.41261 6.5792 6.57943 5.8547 5.75531 5.37925C4.07991 4.41023 2.44526 4.46909 1.54416 5.7415C0.199308 7.62972 0.982673 11.4967 3.30107 14.3766C4.0618 15.323 4.89497 16.0475 5.71909 16.523C7.39449 17.492 9.02915 17.4331 9.93024 16.1652C11.2751 14.2725 10.4917 10.4055 8.17786 7.52558H8.17333ZM9.63139 15.3094C9.52271 15.4498 9.48649 15.477 9.40951 15.5268C8.62614 15.9841 7.56203 15.8618 6.47529 15.237C5.77795 14.834 5.07157 14.2227 4.42405 13.4167C2.45884 10.9715 1.78868 7.68859 2.93429 6.08111C3.11542 5.823 3.33277 5.62829 3.59993 5.47434C3.64068 5.46075 3.69049 5.43811 3.73124 5.42906C4.78177 5.18001 7.04583 6.1445 8.80274 9.06514C11.1981 13.0589 9.62686 15.3094 9.62686 15.3094H9.63139Z" fill="#1E1E1E"/>
<path d="M5.91406 15.4227L6.85591 14.8748C7.93813 15.4996 8.91621 15.554 9.62712 15.1464L8.68527 15.6943C7.97889 16.1064 6.99628 16.0475 5.91406 15.4227Z" fill="#C2C2C2"/>
<path d="M3.16976 6.19439L4.11161 5.64648C3.40975 6.05402 2.97505 6.91889 2.97505 8.14601C2.97505 9.08333 3.21957 10.0976 3.64974 11.0666L2.70789 11.6145C2.28225 10.6455 2.0332 9.63123 2.0332 8.69391C2.0332 7.46226 2.47243 6.59739 3.16976 6.19439Z" fill="#C2C2C2"/>
<path d="M2.70312 11.6146L3.64497 11.0667C4.02534 11.927 4.54607 12.7466 5.15284 13.4394L4.21099 13.9873C3.59969 13.2945 3.07896 12.4704 2.70312 11.6146Z" fill="#E7E7E7"/>
<path d="M4.21582 13.9918L5.15767 13.4438C5.66935 14.028 6.24895 14.5215 6.85572 14.8747L5.91387 15.4226C5.30257 15.0694 4.7275 14.5759 4.21582 13.9918Z" fill="#C2C2C2"/>
<path d="M5.94087 5.91808C3.53191 4.52795 1.5667 5.64639 1.55765 8.42213C1.54859 11.1888 3.50474 14.5804 5.9137 15.9705C8.32266 17.3606 10.2879 16.2377 10.2969 13.4665C10.306 10.6952 8.34983 7.30821 5.94087 5.91808ZM5.9137 15.4181C3.76737 14.1774 2.02404 11.1616 2.0331 8.69382C2.04216 6.22146 3.79454 5.22075 5.94087 6.46145C8.0872 7.70216 9.83053 10.7179 9.82147 13.1902C9.81242 15.6581 8.06003 16.6588 5.9137 15.4181Z" fill="#686868"/>
<path d="M6.26219 9.87112C6.03579 9.7398 5.82749 9.72622 5.67807 9.81678L5.21167 10.0885C5.06224 10.179 4.97168 10.3602 4.97168 10.6183C4.97168 11.139 5.33846 11.7729 5.78674 12.031C6.06749 12.194 6.29389 12.1035 6.28484 12.108L6.84179 11.8092C6.98669 11.7231 7.07726 11.542 7.07726 11.2839C7.07726 10.7632 6.71048 10.1292 6.26219 9.87112Z" fill="#686868"/>
<path d="M12.8142 9.00637C12.2436 7.72038 11.4693 6.48873 10.5547 5.45179C9.78487 4.57334 8.92 3.83073 8.00079 3.30547C6.37519 2.36814 4.90355 2.28211 3.83945 2.90246L1.45312 4.2926L10.4233 10.3965C10.4233 10.3965 10.4414 10.4327 10.446 10.4508L12.8323 9.06071C12.8323 9.06071 12.8142 9.02448 12.8097 9.00637H12.8142Z" fill="#23A8FA"/>
<path d="M5.61504 4.69111C4.26566 3.91228 3.02043 3.7221 2.02877 4.03454C1.66199 4.15227 1.33144 4.33339 1.03711 4.58244V5.01261L10.4465 10.4464C9.40055 8.05098 7.63006 5.85484 5.61051 4.68659L5.61504 4.69111Z" fill="#23A8FA"/>
<path opacity="0.5" d="M10.2876 9.98889C10.1654 9.70362 10.0069 9.27798 9.74424 8.80705C9.61745 8.56706 9.47255 8.31802 9.30954 8.05086C9.14653 7.78823 8.9654 7.51201 8.76164 7.24485C8.55787 6.97769 8.34052 6.69695 8.096 6.43885C7.85601 6.17169 7.59791 5.91811 7.33075 5.67359C6.78738 5.18908 6.19419 4.76344 5.5829 4.44647C5.28404 4.28799 4.9716 4.15667 4.67274 4.05705C4.37389 3.95743 4.08409 3.88951 3.8124 3.84876C3.26903 3.7582 2.80716 3.81706 2.49924 3.88498C2.34529 3.91668 2.22756 3.95743 2.15058 3.98913C2.0736 4.02083 2.02832 4.03441 2.02832 4.03441C2.02832 4.03441 2.20492 3.99366 2.51283 3.97102C2.82074 3.94385 3.25997 3.97102 3.76259 4.09781C4.01617 4.1612 4.28333 4.24723 4.55501 4.36497C4.83123 4.4827 5.10292 4.6276 5.38819 4.79061C5.66893 4.95362 5.94515 5.14833 6.22589 5.34304C6.49758 5.55133 6.76926 5.76868 7.02737 6.00415C7.29 6.23508 7.53904 6.47507 7.77451 6.72865C8.00997 6.97769 8.2409 7.23127 8.4492 7.48484C8.86578 7.99199 9.24162 8.48556 9.52689 8.92931C9.81669 9.37307 10.0522 9.7489 10.2061 10.0161C10.3555 10.2877 10.4506 10.4417 10.4506 10.4417C10.4506 10.4417 10.3963 10.2696 10.2876 9.97984V9.98889Z" fill="#23A8FA"/>
<path d="M11.8775 15.6764C12.0451 15.9164 21.9164 21.6716 22.5594 21.7033L25.2129 19.7653C25.5434 19.5253 25.7698 19.1721 25.8468 18.7691C26.1864 17.0031 26.612 14.2229 26.6437 12.7241C26.6573 12.1762 26.6302 11.6192 26.4536 11.0985C26.1411 10.1792 25.3668 9.47286 24.5019 9.03363C23.6371 8.58988 22.6771 8.37706 21.7262 8.16876C20.9791 8.00575 20.2319 7.84274 19.4802 7.6752C18.801 7.52577 18.1218 7.37634 17.4381 7.2405C16.1204 6.97334 14.7982 6.75146 13.4669 6.55675C12.7967 6.45713 12.1266 6.36204 11.4519 6.27148C11.1078 6.2262 10.0029 6.71524 9.40518 7.14088C9.19236 7.29484 9.17424 7.59822 9.35537 7.7884C12.1537 10.7634 11.6874 15.4092 11.8775 15.6764Z" fill="#4F4D4C"/>
<path opacity="0.6" d="M25.9104 13.7203C25.6975 12.9505 25.5436 11.5785 25.0636 10.7046L21.8984 12.5747C21.8984 12.5747 24.1217 16.5278 24.1217 16.9353C24.1217 18.0401 24.081 19.3578 23.8591 20.7434L25.204 19.7608C25.5345 19.5208 25.7609 19.1677 25.8379 18.7646C26.0054 17.8998 26.1911 16.7949 26.3405 15.7127C26.2273 15.0425 26.0869 14.3814 25.9058 13.7158L25.9104 13.7203Z" fill="#333333"/>
<path opacity="0.7" d="M10.8994 9.32346C10.8994 9.32346 12.4888 11.7234 12.3484 15.3051L14.3544 14.4312L16.8856 12.5203L10.9492 9.09253L10.8994 9.31894V9.32346Z" fill="#282828"/>
<path d="M32.5395 24.3162C32.3131 24.1849 32.1048 24.1713 31.9554 24.2618L31.489 24.5335C31.3396 24.6241 31.249 24.8052 31.249 25.0633C31.249 25.5841 31.6158 26.218 32.0641 26.4761C32.3448 26.6391 32.5712 26.5485 32.5622 26.5531L33.1191 26.2542C33.264 26.1682 33.3546 25.9871 33.3546 25.729C33.3546 25.2082 32.9878 24.5743 32.5395 24.3162Z" fill="#A0A0A0"/>
<path d="M35.5506 21.2868C34.5408 20.0552 31.9507 17.4334 29.0527 18.6922C29.9901 18.3481 31.1628 18.5519 32.3583 19.2401C33.2412 19.7473 34.1333 20.5216 34.9483 21.5359C37.4298 24.6195 38.2675 28.7582 36.8275 30.7868C36.6962 30.9725 36.5513 31.1264 36.3973 31.2623C39.0689 29.1929 38.1271 24.6558 35.5506 21.2868Z" fill="#383838"/>
<path d="M36.6235 24.2979C36.2024 23.3425 35.6364 22.4007 34.9436 21.5403C34.8349 21.4045 34.7263 21.2777 34.6176 21.1509C33.8931 20.3268 33.1188 19.6838 32.3535 19.2446C30.986 18.4567 29.6457 18.3027 28.654 18.8778L28.4639 18.9865C29.451 18.4114 30.7958 18.5608 32.1633 19.3532C32.9286 19.797 33.7029 20.4355 34.4274 21.2596C34.5361 21.3864 34.6448 21.5132 34.7534 21.649C35.4462 22.5093 36.0122 23.4512 36.4334 24.4066C37.5246 26.8745 37.6695 29.4328 36.6326 30.8954C36.4017 31.2169 36.13 31.466 35.8221 31.6471L36.0122 31.5384C36.3202 31.3573 36.5918 31.1082 36.8228 30.7867C37.8597 29.3242 37.7148 26.7658 36.6235 24.2979Z" fill="#4F4F4F"/>
<path d="M34.7536 21.6492C33.9385 20.6349 33.0465 19.8606 32.1635 19.3535C30.796 18.5656 29.4557 18.4116 28.464 18.9867C28.1199 19.195 27.0648 19.8289 26.6392 21.3866C25.9916 23.7457 27.1056 27.2279 29.2836 29.664C30.2934 30.7915 32.9468 33.2457 35.8222 31.6518C36.1301 31.4707 36.4018 31.2217 36.6327 30.9002C38.0727 28.8716 37.235 24.7329 34.7536 21.6492ZM35.3241 30.6556C34.4773 31.8465 32.9423 31.9009 31.3665 30.9907C30.5922 30.5424 29.8089 29.8678 29.0934 28.9757C26.9154 26.2724 26.1818 22.6363 27.4452 20.8613C28.2919 19.6704 29.827 19.6116 31.4027 20.5217C32.1771 20.97 32.9559 21.6447 33.6759 22.5367C35.8539 25.24 36.5875 28.8761 35.3241 30.6556Z" fill="#383838"/>
<path d="M33.821 22.3327C33.0602 21.3863 32.2271 20.6618 31.4029 20.1864C29.7275 19.2174 28.0929 19.2762 27.1918 20.5486C25.8469 22.4369 26.6303 26.3039 28.9442 29.1838C29.7049 30.1301 30.5381 30.8546 31.3622 31.3301C33.0376 32.2991 34.6722 32.2402 35.5733 30.9724C36.9182 29.0796 36.1348 25.2126 33.821 22.3327ZM35.279 30.1165C35.1703 30.2569 35.1341 30.2841 35.0571 30.3339C34.2738 30.7912 33.2097 30.669 32.1229 30.0441C31.4256 29.6411 30.7192 29.0298 30.0717 28.2238C28.1065 25.7786 27.4363 22.4957 28.5819 20.8882C28.763 20.6301 28.9804 20.4354 29.2476 20.2815C29.2883 20.2679 29.3381 20.2452 29.3789 20.2362C30.4294 19.9871 32.6935 20.9516 34.4504 23.8723C36.8457 27.8661 35.2745 30.1165 35.2745 30.1165H35.279Z" fill="#1E1E1E"/>
<path d="M31.5615 30.2298L32.5034 29.6819C33.5856 30.3068 34.5637 30.3611 35.2746 29.9536L34.3327 30.5015C33.6263 30.9135 32.6437 30.8547 31.5615 30.2298Z" fill="#C2C2C2"/>
<path d="M28.8172 21.0015L29.7591 20.4536C29.0572 20.8611 28.6225 21.726 28.6225 22.9531C28.6225 23.8905 28.867 24.9048 29.2972 25.8738L28.3554 26.4217C27.9297 25.4527 27.6807 24.4384 27.6807 23.501C27.6807 22.2739 28.1199 21.4045 28.8172 21.0015Z" fill="#C2C2C2"/>
<path d="M28.3506 26.4217L29.2924 25.8738C29.6728 26.7341 30.1935 27.5537 30.8003 28.2465L29.8585 28.7944C29.2472 28.1016 28.7264 27.2775 28.3506 26.4217Z" fill="#E7E7E7"/>
<path d="M29.8633 28.7989L30.8051 28.251C31.3168 28.8351 31.8964 29.3287 32.5032 29.6819L31.5613 30.2298C30.95 29.8766 30.375 29.383 29.8633 28.7989Z" fill="#C2C2C2"/>
<path d="M31.5883 20.7298C29.1794 19.3397 27.2142 20.4582 27.2051 23.2339C27.1961 26.0006 29.1522 29.3921 31.5612 30.7823C33.9701 32.1724 35.9353 31.0494 35.9444 28.2782C35.9534 25.507 33.9973 22.12 31.5883 20.7298ZM31.5612 30.2298C29.4148 28.9891 27.6715 25.9734 27.6806 23.5056C27.6896 21.0332 29.442 20.0325 31.5883 21.2732C33.7347 22.5139 35.478 25.5297 35.4689 28.002C35.4599 30.4698 33.7075 31.4706 31.5612 30.2298Z" fill="#686868"/>
<path d="M31.9097 24.6785C31.6832 24.5472 31.475 24.5336 31.3255 24.6242L30.8591 24.8958C30.7097 24.9864 30.6191 25.1675 30.6191 25.4256C30.6191 25.9464 30.9859 26.5803 31.4342 26.8384C31.7149 27.0014 31.9413 26.9109 31.9323 26.9154L32.4893 26.6165C32.6342 26.5305 32.7247 26.3494 32.7247 26.0913C32.7247 25.5705 32.3579 24.9366 31.9097 24.6785Z" fill="#686868"/>
<path d="M19.3438 6.36197C19.3438 6.36197 19.2623 6.32574 19.2034 6.31668C18.1982 6.14914 17.2428 5.7235 16.8805 5.55143C16.5228 5.38389 15.4406 4.86769 13.9237 3.77641C13.2037 3.2602 12.5607 2.63985 11.7728 2.21421C11.4966 2.06478 11.2747 2.06025 11.0166 2.20062L14.0595 5.42012L19.2216 7.27212C19.7197 6.93704 19.5431 6.48423 19.3438 6.36197Z" fill="#333333"/>
<path d="M18.8862 6.3937C18.3474 6.30767 17.1973 6.03598 15.6396 5.16658C15.549 5.11677 15.4585 5.06243 15.3679 5.01262C14.3989 4.45113 13.5929 3.87606 12.9454 3.39155C12.2933 2.90252 11.8043 2.50857 11.4647 2.31386C11.2609 2.19613 11.1115 2.15085 11.0164 2.20519L6.83691 4.63226C9.37266 6.80576 11.999 8.74379 15.0283 9.71734C15.0147 9.7264 19.167 7.31291 19.167 7.31291C19.1806 7.30385 19.1942 7.2948 19.2077 7.28574C19.4613 7.10914 19.1942 6.44351 18.8862 6.3937Z" fill="#444342"/>
<path d="M14.7977 8.87957C14.277 8.61241 12.6966 8.75731 8.77077 5.81856C8.11872 5.32952 7.62968 4.93557 7.29007 4.74086C7.0863 4.62313 6.93688 4.57785 6.84179 4.63219C6.76934 4.67747 6.57915 4.7952 6.51576 5.04878C6.21238 6.2125 10.3873 8.53996 10.5639 8.63958C12.022 9.44558 13.9781 10.2923 14.9969 9.74444C15.0105 9.73538 15.0241 9.72633 15.0377 9.71727C15.2777 9.54973 15.0739 9.02447 14.8022 8.8841L14.7977 8.87957Z" fill="#333333"/>
<path d="M13.7882 9.26455C11.8456 8.77099 9.92571 7.53481 8.3137 6.3258C7.66165 5.83677 7.18167 5.44735 6.86923 5.27075C6.62018 5.13491 6.57037 5.14849 6.55679 5.35226C6.50698 5.76884 8.12352 7.14992 10.0389 8.25478C13.3127 10.143 14.807 9.88491 14.4221 9.46832C14.2818 9.31436 13.9874 9.30984 13.7882 9.26003V9.26455Z" fill="#282828"/>
<path d="M23.5324 16.3193L20.5756 11.4425C20.4261 11.198 20.1046 11.1165 19.8601 11.2659C19.6156 11.4153 19.5341 11.7368 19.6835 11.9814L22.6404 16.8581C22.7853 17.0936 22.8532 17.3653 22.8396 17.6415L22.7355 20.1184C22.7219 20.4037 22.586 20.6618 22.3642 20.8338L21.1189 21.7847C20.9061 21.9478 20.6208 21.9659 20.3854 21.83L10.6092 16.0476L10.7858 15.9389L11.8001 16.4189C11.9495 16.4868 12.1216 16.4868 12.2665 16.4099L14.7388 15.0922C14.7931 15.0605 14.8475 15.0243 14.8882 14.9744L17.1342 12.3889C17.3244 12.1715 17.3017 11.841 17.0844 11.6553C16.867 11.4652 16.5365 11.4878 16.3508 11.7051L14.1683 14.2183L12.0083 15.3684L10.9759 14.8794C10.8175 14.8024 10.6273 14.816 10.4778 14.9065L9.699 15.391C9.64014 15.4273 9.5858 15.4771 9.54505 15.5359C9.40468 15.7352 9.35487 15.9887 9.40921 16.2242C9.45901 16.4642 9.61297 16.6725 9.82126 16.7948L19.8556 22.7266C20.1227 22.8851 20.4216 22.9666 20.7205 22.9666C21.0827 22.9666 21.445 22.8489 21.7529 22.6134L22.9981 21.6625C23.469 21.3002 23.7543 20.7569 23.7769 20.1637L23.8811 17.6868C23.8992 17.2068 23.7815 16.7359 23.5279 16.3238L23.5324 16.3193Z" fill="#B7B7B7"/>
<path d="M21.8759 20.1729C21.7762 19.951 21.5951 19.6929 21.3506 19.4167C20.6669 18.6379 19.4714 17.696 18.113 16.9127C16.3832 15.912 14.9207 15.4773 14.4316 15.7625L13.6211 16.2334C14.1101 15.9482 15.5727 16.3829 17.3025 17.3836C18.6609 18.167 19.8563 19.1088 20.5401 19.8876C20.7846 20.1684 20.9657 20.422 21.0653 20.6438C21.1242 20.7706 21.1514 20.8884 21.1514 20.9925C21.1514 21.1374 21.088 21.2416 20.9748 21.3049L21.7853 20.834C21.8985 20.7706 21.9574 20.6665 21.9619 20.5216C21.9619 20.422 21.9302 20.3042 21.8759 20.1729Z" fill="#777674"/>
<path d="M17.3023 17.3791C15.1741 16.152 13.4489 15.7761 13.4443 16.5414C13.4443 17.3066 15.165 18.9277 17.2932 20.1593C19.4215 21.3865 21.1467 21.7578 21.1512 20.9925C21.1512 20.2273 19.4305 18.6107 17.3023 17.3791Z" fill="#605E5C"/>
<path d="M18.9459 13.2762L18.9414 14.6301L19.7655 14.1502L19.7701 12.8008L18.9459 13.2762Z" fill="#777674"/>
<path d="M18.9413 11.3655L18.1172 11.8455L18.9458 13.2763L19.77 12.8009L18.9413 11.3655Z" fill="#898785"/>
<path d="M17.7636 10.6863L16.9395 11.1663L18.1168 11.8455L18.9409 11.3655L17.7636 10.6863Z" fill="#777674"/>
<path d="M18.1169 11.8455L16.9396 11.1663L16.111 11.6417L16.1064 12.9911L16.9306 14.4265L18.1079 15.1057L18.9411 14.6303L18.9456 13.2764L18.1169 11.8455Z" fill="#605E5C"/>
<path d="M16.2013 7.58911C14.3991 9.76261 18.7144 12.5021 22.3777 13.0229C24.8229 13.3715 26.2085 12.4659 26.6024 10.0162C26.6794 9.52715 26.7337 9.02 26.616 8.54002C25.7964 5.22543 17.9763 5.45184 16.2059 7.59364L16.2013 7.58911Z" fill="#23A8FA"/>
<path style="mix-blend-mode:screen" opacity="0.6" d="M25.4386 7.53485C25.5066 7.06845 24.1889 6.49791 22.4999 6.26245C20.8064 6.02698 19.38 6.21264 19.3121 6.67903C19.2442 7.14543 20.5618 7.71597 22.2508 7.95144C23.9444 8.1869 25.3707 8.00125 25.4386 7.53485Z" fill="url(#paint0_linear_414_8735)"/>
<path d="M11.3383 15.0786C11.3383 15.0786 10.7225 14.5895 9.75803 13.933C9.27805 13.6024 8.70751 13.2311 8.09168 12.8372C7.47586 12.4477 6.81022 12.0447 6.14006 11.6553C4.79521 10.8719 3.42319 10.1429 2.36361 9.64482C1.30856 9.13767 0.570472 8.86146 0.570472 8.86146C0.40746 8.79807 0.217279 8.84335 0.0995473 8.98825C-0.0498807 9.16937 -0.022712 9.432 0.158413 9.58143C0.158413 9.58143 0.765181 10.0795 1.7342 10.7406C2.69416 11.4063 4.01185 12.2349 5.36575 13.0047C6.04044 13.3896 6.71966 13.7654 7.36718 14.105C8.0147 14.4446 8.62147 14.7525 9.14674 15.0016C10.1973 15.5087 10.9308 15.7985 10.9308 15.7985C11.0984 15.8619 11.2931 15.8167 11.4108 15.6718C11.5557 15.4906 11.524 15.228 11.3429 15.0831L11.3383 15.0786Z" fill="#B7B7B7"/>
<path d="M19.7382 21.1329C19.6929 21.1329 19.6477 21.1193 19.6069 21.0966C19.5254 21.0513 19.4756 20.9653 19.4756 20.8702V16.9851C19.4756 15.8712 20.0778 14.8297 21.0423 14.2728L21.5268 13.992C21.6536 13.9196 21.8121 13.9648 21.8845 14.0871C21.957 14.2094 21.9117 14.3724 21.7895 14.4448L21.3049 14.7256C20.4989 15.192 20.0008 16.0568 20.0008 16.9896V20.4219L20.0869 20.3721C20.2091 20.2997 20.3722 20.345 20.4446 20.4672C20.5171 20.594 20.4718 20.7525 20.3495 20.8249L19.8741 21.1012C19.8333 21.1238 19.788 21.1374 19.7427 21.1374L19.7382 21.1329Z" fill="#B7B7B7"/>
<path d="M18.665 20.5125C18.6197 20.5125 18.5744 20.4989 18.5337 20.4762C18.4522 20.431 18.4023 20.3449 18.4023 20.2498V16.3647C18.4023 15.2508 19.0046 14.2093 19.9691 13.6524L20.7706 13.1905C20.8973 13.118 21.0558 13.1633 21.1283 13.2856C21.2007 13.4078 21.1554 13.5709 21.0332 13.6433L20.2317 14.1052C19.4257 14.5716 18.9276 15.4364 18.9276 16.3647V19.797L19.0136 19.7472C19.1359 19.6748 19.2989 19.72 19.3714 19.8423C19.4438 19.9691 19.3985 20.1276 19.2763 20.2L18.8008 20.4762C18.7601 20.4989 18.7148 20.5125 18.6695 20.5125H18.665Z" fill="#B7B7B7"/>
<path d="M16.5778 18.6514C16.4781 18.5926 16.3831 18.588 16.3197 18.6288L13.8428 20.0597L14.359 20.9472L16.8359 19.5163C16.8993 19.4755 16.94 19.3986 16.94 19.2808C16.94 19.0499 16.777 18.7692 16.5778 18.6514Z" fill="#333333"/>
<path d="M14.4677 20.7071C14.4677 20.9381 14.3047 21.0331 14.1054 20.9154C13.9062 20.7977 13.7432 20.5169 13.7432 20.286C13.7432 20.0551 13.9062 19.96 14.1054 20.0777C14.3047 20.1954 14.4677 20.4762 14.4677 20.7071Z" fill="#262626"/>
<path d="M28.7216 3.34635C28.6582 3.34635 28.5902 3.32824 28.5314 3.29654C28.3412 3.1924 28.2733 2.95241 28.3819 2.76675L29.5819 0.620424C29.686 0.430243 29.926 0.366849 30.1117 0.470996C30.3019 0.575143 30.3698 0.815134 30.2611 1.00079L29.0612 3.14712C28.9887 3.2739 28.8574 3.34635 28.7216 3.34635Z" fill="#333333"/>
<path d="M26.97 7.77939C26.8614 7.77939 26.7572 7.72506 26.6983 7.62091C26.6123 7.47148 26.6621 7.2813 26.8115 7.19527L27.6855 6.68812C27.7896 6.62472 27.8621 6.52058 27.8802 6.40285L28.3511 3.09279C28.3738 2.92072 28.5322 2.80752 28.7043 2.82563C28.8764 2.84827 28.9941 3.00675 28.9715 3.17882L28.5005 6.49341C28.4553 6.80585 28.2696 7.07301 27.9979 7.23149L27.124 7.73864C27.0742 7.76581 27.0198 7.77939 26.97 7.77939Z" fill="#4E4E4E"/>
<path d="M29.5144 6.90994C29.6865 7.31294 29.0435 8.128 28.5861 7.94688C28.1877 7.7884 27.762 6.89636 28.482 6.57033C28.7673 6.45713 29.1023 6.52052 29.3786 6.73787C29.4555 6.79674 29.4918 6.86466 29.5099 6.90994H29.5144Z" fill="#333333"/>
<path d="M29.3645 6.97318C29.2423 6.87809 28.9977 6.99129 28.8166 7.22222C28.6355 7.45316 28.5812 7.72032 28.7034 7.81541C28.8257 7.9105 29.0702 7.7973 29.2513 7.56636C29.4324 7.33543 29.4868 7.06827 29.3645 6.97318Z" fill="#2192D8"/>
<path d="M26.5262 7.00498L25.9512 6.04954C25.9829 6.03596 26.0146 6.01785 26.0463 6.00879L26.6213 6.96422C26.5896 6.97781 26.5625 6.99139 26.5262 7.00498Z" fill="#ADADAD"/>
<path d="M26.621 6.95961L26.0459 6.00418C26.2316 5.92267 26.3448 5.90003 26.3629 5.93173L26.9379 6.88716C26.9198 6.85546 26.8066 6.8781 26.621 6.95961Z" fill="#4E4E4E"/>
<path d="M25.3573 7.83808L24.7822 6.88265C24.7822 6.88265 24.7958 6.8102 24.8728 6.73775C25.0086 6.61096 25.2577 6.43436 25.5248 6.27588L26.0999 7.23131C25.8328 7.3898 25.5837 7.56639 25.4479 7.69318C25.3709 7.76563 25.3437 7.81544 25.3573 7.83808Z" fill="#4E4E4E"/>
<path d="M26.1005 7.2314L25.5254 6.27597C25.6703 6.18993 25.8152 6.11295 25.951 6.04956L26.5261 7.00499C26.3903 7.06839 26.2454 7.14989 26.1005 7.2314Z" fill="#ADADAD"/>
<path d="M26.5258 7.00498C26.9107 6.82385 27.0511 6.83744 26.8473 7.03667C26.6391 7.23591 26.1591 7.54382 25.7742 7.72495C25.3893 7.90607 25.2444 7.89702 25.4527 7.69778C25.661 7.49854 26.141 7.19063 26.5304 7.00498H26.5258Z" fill="#1A1A1A"/>
<path d="M24.7692 8.04184L24.1035 7.1498C24.1352 7.13168 24.1669 7.11357 24.1941 7.09546L24.8597 7.9875C24.8325 8.00108 24.8008 8.0192 24.7692 8.04184Z" fill="#ADADAD"/>
<path d="M24.86 7.98742L24.1943 7.09538C24.3709 6.99576 24.4796 6.96406 24.5022 6.99123L25.1679 7.88327C25.1452 7.85157 25.0366 7.88327 24.86 7.98742Z" fill="#4E4E4E"/>
<path d="M23.691 8.99265L23.0254 8.10061C23.0254 8.10061 23.0344 8.02815 23.1024 7.94665C23.2246 7.80628 23.4556 7.60251 23.7046 7.42139L24.3702 8.31343C24.1212 8.49908 23.8903 8.69832 23.768 8.83869C23.7001 8.9202 23.6729 8.97001 23.691 8.99265Z" fill="#4E4E4E"/>
<path d="M24.3707 8.31339L23.7051 7.42135C23.8364 7.32173 23.9768 7.22664 24.1036 7.14966L24.7692 8.0417C24.6424 8.11868 24.502 8.21377 24.3707 8.31339Z" fill="#ADADAD"/>
<path d="M24.7684 8.0419C25.1307 7.82002 25.2756 7.82002 25.0899 8.0419C24.9043 8.25925 24.456 8.61697 24.0937 8.83885C23.7269 9.06072 23.582 9.06072 23.7722 8.83885C23.9579 8.6215 24.4062 8.26377 24.7729 8.0419H24.7684Z" fill="#1A1A1A"/>
<path d="M27.2766 7.88794L24.5371 9.47278L26.8872 15.4454L29.2645 14.0734L27.2766 7.88794Z" fill="#23A8FA"/>
<path d="M24.9811 10.1972L25.683 11.9858L28.0602 10.6138L27.4716 8.78442C26.6203 9.22365 25.778 9.67194 24.9766 10.1972H24.9811Z" fill="#333333"/>
<path d="M25.0219 9.28256L31.3794 26.1362C31.4337 26.2766 31.3613 26.4351 31.2209 26.4894C31.0805 26.5438 30.9266 26.4713 30.8723 26.3355L24.0574 9.66292C23.9488 9.39576 24.0755 9.09238 24.3427 8.9837C24.6099 8.87503 24.9132 9.00181 25.0219 9.26897C25.0219 9.26897 25.0219 9.27803 25.0264 9.28256H25.0219Z" fill="#333333"/>
<path d="M26.4122 6.45251L23.9444 7.87887C23.5867 8.08716 23.4237 8.51281 23.5505 8.90675L23.881 9.93011C23.9263 10.075 24.0259 10.1927 24.1527 10.2697L24.9044 10.7044L28.1148 8.85242C28.2597 8.77091 28.3503 8.61243 28.3503 8.44489V7.65699C28.3503 7.34455 28.1827 7.05928 27.9156 6.9008L27.1367 6.45251C26.9149 6.32573 26.6386 6.32573 26.4122 6.45251Z" fill="#333333"/>
<path d="M24.574 9.76248C24.746 10.1655 24.103 10.9805 23.6457 10.7994C23.2472 10.6409 22.8216 9.74889 23.5416 9.42287C23.8268 9.30967 24.1619 9.37306 24.4381 9.59041C24.5151 9.64928 24.5513 9.7172 24.5694 9.76248H24.574Z" fill="#333333"/>
<path d="M24.4251 9.82596C24.3028 9.73087 24.0583 9.84407 23.8772 10.075C23.696 10.3059 23.6417 10.5731 23.764 10.6682C23.8862 10.7633 24.1307 10.6501 24.3119 10.4191C24.493 10.1882 24.5473 9.92105 24.4251 9.82596Z" fill="#2192D8"/>
<path d="M23.0615 9.88033C22.7853 9.88033 22.5045 9.81241 22.2509 9.68109C21.4087 9.24186 19.9824 8.54906 19.9688 8.54453C19.8148 8.46756 19.7469 8.2819 19.8239 8.12795C19.9008 7.97399 20.0865 7.90607 20.2405 7.98305C20.254 7.9921 21.6895 8.68491 22.5407 9.12866C22.8849 9.30979 23.2924 9.30073 23.632 9.10602L23.9263 8.93395C24.0758 8.84792 24.266 8.89773 24.352 9.04716C24.438 9.19658 24.3882 9.38676 24.2388 9.4728L23.9445 9.64487C23.6728 9.80335 23.3694 9.88033 23.066 9.88033H23.0615Z" fill="#4E4E4E"/>
<path d="M16.645 9.78519C16.4819 9.78519 16.328 9.68105 16.2737 9.51803C16.2057 9.31427 16.3189 9.09239 16.5227 9.02447L19.9822 7.88791C20.186 7.81999 20.4078 7.93319 20.4758 8.13696C20.5437 8.34072 20.4305 8.5626 20.2267 8.63052L16.7672 9.76708C16.7265 9.78067 16.6857 9.78519 16.645 9.78519Z" fill="#333333"/>
<path d="M29.6049 10.0342C30.0396 11.0531 28.414 13.1043 27.2684 12.647C26.2677 12.244 25.1945 9.99802 27.0103 9.18296C27.7303 8.90221 28.5725 9.0607 29.2698 9.59954C29.46 9.74897 29.5551 9.91651 29.6049 10.0342Z" fill="#4E4E4E"/>
<path d="M29.3156 10.0343C28.9714 9.76261 28.2696 10.0841 27.7488 10.7497C27.2281 11.4154 27.0787 12.1716 27.4228 12.4433C27.767 12.715 28.4688 12.3935 28.9895 11.7278C29.5103 11.0622 29.6597 10.306 29.3156 10.0343Z" fill="#F0FDFF"/>
<path d="M30.633 0.950941C30.4745 1.22716 30.076 1.29508 29.75 1.1049C29.4195 0.914716 29.2791 0.538882 29.4421 0.262667C29.6006 -0.0135487 29.9991 -0.0814705 30.3251 0.108711C30.6511 0.298892 30.796 0.674726 30.633 0.950941Z" fill="#333333"/>
<path d="M16.6359 10.143C16.3325 10.2426 15.9929 10.0253 15.8752 9.66303C15.7574 9.30078 15.9069 8.92948 16.2103 8.82986C16.5136 8.73024 16.8533 8.94759 16.971 9.30984C17.0887 9.67209 16.9393 10.0434 16.6359 10.143Z" fill="#333333"/>
<g style="mix-blend-mode:screen" opacity="0.8">
<path d="M27.4357 7.03216C27.5217 7.18159 26.9286 7.68421 26.109 8.15513C25.2894 8.62606 24.5558 8.88869 24.4743 8.74379C24.3928 8.59889 27.3497 6.88273 27.4357 7.03216Z" fill="#333333"/>
</g>
<g style="mix-blend-mode:screen" opacity="0.8">
<path d="M28.0152 9.35515C27.7843 9.43213 27.6711 9.6042 27.7617 9.74457C27.8522 9.88494 28.1194 9.93475 28.3503 9.85777C28.5813 9.78079 28.6945 9.60873 28.6039 9.47288C28.5133 9.33704 28.2462 9.2827 28.0152 9.35968V9.35515Z" fill="#4E4E4E"/>
</g>
<path d="M3.8171 3.55008C3.37788 3.53196 2.84356 4.424 3.17411 4.78173C3.46391 5.09869 4.44651 5.1802 4.49632 4.39231C4.49632 4.08439 4.32425 3.79459 4.0254 3.61347C3.94389 3.56366 3.86691 3.5546 3.8171 3.55008Z" fill="#333333"/>
</g>
<defs>
<linearGradient id="paint0_linear_414_8735" x1="19.3121" y1="7.10921" x2="25.4432" y2="7.10921" gradientUnits="userSpaceOnUse">
<stop stop-color="#035181"/>
<stop offset="0.14" stop-color="#196798"/>
<stop offset="0.41" stop-color="#238BCB"/>
<stop offset="0.65" stop-color="#27A1EC"/>
<stop offset="0.85" stop-color="#23A8FA"/>
<stop offset="1" stop-color="#23A8FA"/>
</linearGradient>
<clipPath id="clip0_414_8735">
<rect width="38" height="32.1723" fill="white"/>
</clipPath>
</defs>
</svg>
