<svg width="36" height="32" viewBox="0 0 36 32" fill="none" xmlns="http://www.w3.org/2000/svg">
<g clip-path="url(#clip0_414_11867)">
<path d="M0.651416 12.6921L0.03125 12.9787L0.410737 13.3177L0.651416 12.6921Z" fill="#007ECC"/>
<path d="M0.467061 15.1098C3.1187 13.5687 5.77094 12.0275 8.42258 10.4863C8.38207 10.5101 8.32607 10.5066 8.26411 10.4702L0.308594 15.0944C0.370551 15.1295 0.42655 15.1331 0.467061 15.1098Z" fill="#161615"/>
<path d="M8.10856 9.94469C5.45632 11.4853 2.80468 13.0265 0.152446 14.5676C0.112531 14.5909 0.0869141 14.6409 0.0869141 14.7106C0.0869141 14.8512 0.186403 15.0234 0.308529 15.0937L8.26464 10.4701C8.14192 10.3992 8.04303 10.2277 8.04303 10.0865C8.04303 10.0162 8.06805 9.96733 8.10856 9.94409V9.94469Z" fill="#161615"/>
<path d="M0.529779 15.2116C3.18142 13.6704 5.83366 12.1292 8.4853 10.5881C8.50317 10.5779 8.51925 10.563 8.53296 10.5452C8.56036 10.5082 8.57585 10.4552 8.57585 10.3891C8.57645 10.3212 8.56036 10.2479 8.53117 10.177C8.47696 10.043 8.37866 9.91786 8.26666 9.85352L0.310547 14.4765C0.422546 14.5414 0.520843 14.6665 0.575056 14.8005C0.603651 14.8708 0.619736 14.9441 0.619736 15.012C0.619736 15.0799 0.604247 15.1312 0.576247 15.1681C0.563141 15.186 0.547056 15.2003 0.529779 15.211V15.2116Z" fill="#232323"/>
<path d="M8.48782 10.3439C8.48782 10.3129 8.48365 10.2802 8.47412 10.2468L0.612131 14.8155L0.575195 14.8007L8.53071 10.1765L9.03173 10.3779L1.07681 15.0014L0.719365 14.8578L8.48722 10.3433L8.48782 10.3439Z" fill="#232323"/>
<path d="M8.04596 9.83085L0.0898438 14.4556C0.146439 14.4228 0.224481 14.427 0.310268 14.477L8.26579 9.85349C8.18 9.80405 8.10196 9.79928 8.04536 9.83145L8.04596 9.83085Z" fill="#232323"/>
<path d="M9.34735 11.2428C9.35926 11.095 9.3682 11.0134 9.40931 10.8561C9.42122 10.812 9.44029 10.7543 9.45697 10.712C9.47484 10.6691 9.50165 10.6131 9.52309 10.5714C9.54871 10.5213 9.61365 10.4266 9.65892 10.3784C9.68871 10.3468 9.72922 10.3057 9.76377 10.2789C9.79535 10.2526 9.84062 10.2235 9.87577 10.2014L1.91906 14.825C1.76774 14.9125 1.64919 15.0519 1.56936 15.2372C1.50026 15.3998 1.46153 15.597 1.46094 15.8252C3.82662 14.4508 6.98107 12.6171 9.34675 11.2422L9.34735 11.2428Z" fill="black"/>
<path d="M3.95556 18.3291C6.60779 16.7879 9.25943 15.2467 11.9117 13.7061C12.147 13.5685 12.2929 13.2778 12.2941 12.8655C12.2941 12.8089 12.2912 12.7518 12.2864 12.694C12.2167 11.8993 11.6621 10.9919 10.9871 10.6017C10.6225 10.392 10.293 10.3724 10.0542 10.5106L2.09863 15.1341C2.33693 14.9953 2.66697 15.015 3.03156 15.2253C3.70713 15.6155 4.26058 16.5228 4.33087 17.3175C4.33683 17.3753 4.33862 17.4319 4.33862 17.4885C4.33743 17.9013 4.19147 18.1921 3.95615 18.3291H3.95556Z" fill="black"/>
<path d="M5.04859 17.8972L13.0047 13.2731C13.0059 12.7989 12.8832 12.2878 12.6723 11.7975C12.4977 11.393 12.263 11.0039 11.9872 10.6644C11.6935 10.3022 11.3527 9.99535 10.9899 9.78564L3.0332 14.4092C3.3972 14.6189 3.73677 14.9257 4.03107 15.2879C4.3063 15.6281 4.54102 16.0165 4.71557 16.421C4.92647 16.9113 5.04919 17.4224 5.04859 17.8972Z" fill="black"/>
<path d="M8.28113 20.8269L16.2378 16.2034C16.4732 16.067 16.6191 15.7757 16.6197 15.3628C16.6197 15.305 16.6173 15.2484 16.612 15.1918C16.5423 14.3971 15.9882 13.4892 15.3133 13.0996C14.9487 12.8893 14.6186 12.8702 14.3809 13.0078L6.4248 17.632C6.6631 17.4938 6.99314 17.5128 7.35714 17.7231C8.03211 18.1133 8.58675 19.0207 8.65585 19.816C8.66062 19.8726 8.663 19.9292 8.663 19.9863C8.66241 20.3992 8.51645 20.6911 8.28054 20.8275L8.28113 20.8269Z" fill="black"/>
<path d="M7.35874 17.4302C7.35219 17.4267 7.34623 17.4231 7.33908 17.4189C7.32895 17.413 7.32478 17.4106 7.32002 17.4082C7.31704 17.4064 7.31466 17.4052 7.31108 17.4034C7.3081 17.4016 7.30393 17.3993 7.29976 17.3969C7.29678 17.3963 7.29381 17.3939 7.29023 17.3927C7.28666 17.3909 7.28368 17.3891 7.2801 17.3873C7.27712 17.3856 7.27355 17.3838 7.27057 17.382C7.267 17.3808 7.26402 17.379 7.26044 17.3778C7.25747 17.3754 7.25389 17.3742 7.25032 17.3725C7.24734 17.3713 7.24436 17.3695 7.24198 17.3683C7.2384 17.3665 7.23423 17.3653 7.23125 17.3635C7.22887 17.3617 7.22589 17.3605 7.22232 17.3593C7.21874 17.357 7.21517 17.3558 7.21159 17.354C7.20921 17.3528 7.20623 17.3516 7.20385 17.3504C7.19968 17.3486 7.1961 17.3468 7.19253 17.3456C7.18955 17.3439 7.18717 17.3427 7.18478 17.3421C7.18061 17.3397 7.17644 17.3385 7.17347 17.3367C7.16274 17.3313 7.15798 17.3296 7.1544 17.3278C7.14368 17.3236 7.13891 17.3218 7.13474 17.3194C7.12521 17.3159 7.12044 17.3135 7.11568 17.3117C7.10734 17.3081 7.10198 17.3063 7.09662 17.3039C6.77492 17.1818 6.48598 17.1913 6.26198 17.3141C6.10411 17.401 5.97841 17.5434 5.8962 17.7359C5.84258 17.8586 5.80862 18.0016 5.79492 18.163L6.05109 18.3107C6.12556 17.5994 6.68258 17.3331 7.35755 17.7233C8.03252 18.1136 8.58716 19.0209 8.65626 19.8162L8.91243 19.9633C8.87848 19.5076 8.70988 19.0179 8.45431 18.58C8.23508 18.2053 7.95329 17.8687 7.63874 17.6209C7.63278 17.6167 7.62742 17.6131 7.62265 17.609C7.61491 17.603 7.61014 17.5994 7.60597 17.5959C7.59585 17.5881 7.59168 17.5851 7.58751 17.5822C7.57738 17.5744 7.57321 17.5714 7.56904 17.5685C7.55831 17.5607 7.55414 17.5577 7.55057 17.5548C7.54819 17.5536 7.5458 17.5512 7.54282 17.5494C7.53925 17.5464 7.53508 17.544 7.53151 17.5416C7.52853 17.5393 7.52614 17.5375 7.52317 17.5357C7.51959 17.5333 7.51661 17.5309 7.51244 17.5285C7.50946 17.5262 7.50708 17.5238 7.5041 17.522C7.50053 17.5196 7.49636 17.5178 7.49278 17.5154C7.4898 17.513 7.48742 17.5113 7.48385 17.5089C7.48027 17.5065 7.47729 17.5047 7.47431 17.5023C7.47074 17.5005 7.46717 17.4982 7.46419 17.4958C7.46121 17.4934 7.45823 17.4922 7.45465 17.4898C7.45168 17.4868 7.4481 17.485 7.44453 17.4827C7.44155 17.4809 7.43857 17.4791 7.43559 17.4773C7.43261 17.4749 7.42904 17.4731 7.42487 17.4708C7.42189 17.469 7.41951 17.4678 7.41653 17.4654C7.41236 17.463 7.40878 17.4606 7.40461 17.4582C7.40163 17.4565 7.39925 17.4553 7.39627 17.4529C7.3927 17.4505 7.38853 17.4487 7.38495 17.4457C7.37066 17.4374 7.36351 17.4338 7.35695 17.4296L7.35874 17.4302Z" fill="#282828"/>
<path d="M18.5889 26.0867L26.5444 21.4638L26.5462 21.0908L18.5895 25.7144L18.5889 26.0867Z" fill="#007ECC"/>
<path d="M18.5889 25.7146L26.5456 21.091L26.5486 19.8096L18.5924 24.4325L18.5889 25.7146Z" fill="#052D73"/>
<path d="M7.646e-06 14.6547C-0.00118383 14.8519 0.137028 15.0919 0.308601 15.1902C0.422388 15.2558 0.522472 15.2433 0.576089 15.1688C0.604089 15.1313 0.619578 15.0788 0.619578 15.0127C0.619578 14.9466 0.604088 14.8715 0.574897 14.8012C0.520089 14.6672 0.422388 14.5421 0.310388 14.4771C0.139411 14.3782 7.646e-06 14.4575 7.646e-06 14.6547ZM0.0875815 14.7113C0.0875815 14.5701 0.188262 14.5129 0.310984 14.5838C0.406303 14.6392 0.487919 14.7548 0.518898 14.8703C0.52843 14.9037 0.5326 14.9365 0.5326 14.968C0.5326 14.9996 0.527238 15.0258 0.518302 15.0485C0.486132 15.1277 0.404515 15.1491 0.309197 15.0943C0.18707 15.0234 0.0875815 14.8519 0.0875815 14.7113Z" fill="#2E2E2D"/>
<path d="M1.07681 15.0013L0.575195 14.8005C0.603791 14.8708 0.619876 14.9441 0.619876 15.012C0.619876 15.0799 0.604387 15.1312 0.576387 15.1681L1.0083 15.4588C1.01545 15.292 1.03868 15.1389 1.0774 15.0007L1.07681 15.0013Z" fill="#2E2E2D"/>
<path d="M1.34684 14.4752L0.541992 14.0105L0.886926 14.8427L1.08888 14.9595C1.14786 14.7659 1.23484 14.6033 1.34684 14.4752Z" fill="#393738"/>
<path d="M3.02769 16.3943C2.86565 16.3007 2.73459 16.3758 2.7334 16.5617C2.7334 16.7487 2.86327 16.9751 3.02531 17.0686C3.18795 17.1616 3.31901 17.0871 3.3202 16.9006C3.3208 16.7148 3.18914 16.4878 3.02769 16.3943Z" fill="#393738"/>
<path d="M0.387337 13.1843L0.0310841 12.9788L0.0292969 13.7157L0.540442 14.0106L1.34529 14.4753C1.52103 14.2733 1.75694 14.1565 2.03396 14.1351L0.386741 13.1843H0.387337Z" fill="#008FE8"/>
<path d="M2.31153 16.3183C2.31034 16.7723 2.62965 17.3251 3.02463 17.5533C3.4196 17.7814 3.74011 17.598 3.7419 17.1434C3.74309 16.6906 3.42377 16.1372 3.0288 15.9096C2.63442 15.6815 2.31331 15.865 2.31153 16.3183ZM2.73331 16.5614C2.7345 16.3755 2.86557 16.3004 3.02761 16.394C3.18905 16.4875 3.32071 16.7145 3.32012 16.9003C3.31892 17.0868 3.18786 17.1613 3.02522 17.0683C2.86318 16.9748 2.73272 16.7484 2.73331 16.5614Z" fill="#5D5D5D"/>
<path d="M1.71642 15.9747C1.71463 16.8064 2.29905 17.8192 3.02287 18.2374C3.7473 18.6556 4.33648 18.3202 4.33827 17.4879C4.33827 17.4313 4.33648 17.3747 4.33053 17.3169C4.26023 16.5222 3.70678 15.6149 3.03122 15.2247C2.35565 14.8351 1.79863 15.1002 1.72476 15.8127C1.7188 15.8639 1.71642 15.9181 1.71582 15.9741L1.71642 15.9747ZM2.31216 16.3185C2.31394 15.8651 2.63505 15.6816 3.02943 15.9098C3.4244 16.1374 3.74372 16.6908 3.74253 17.1436C3.74134 17.5981 3.42023 17.7816 3.02526 17.5534C2.63028 17.3259 2.31097 16.7724 2.31216 16.3185Z" fill="black"/>
<path d="M3.03257 14.9316C3.02542 14.9281 3.01946 14.9245 3.01291 14.9203C3.00219 14.9143 2.99802 14.9126 2.99325 14.9096C2.99087 14.9078 2.98848 14.9072 2.98551 14.9048C2.98193 14.903 2.97716 14.9012 2.97359 14.8989C2.97061 14.8977 2.96823 14.8959 2.96465 14.8941C2.96168 14.8929 2.95751 14.8905 2.95393 14.8887C2.95095 14.8875 2.94797 14.8863 2.94499 14.8852C2.94142 14.8828 2.93844 14.881 2.93368 14.8798C2.93129 14.878 2.92772 14.8762 2.92474 14.875C2.92117 14.8732 2.91819 14.8715 2.91461 14.8697C2.91163 14.8685 2.90925 14.8667 2.90627 14.8655C2.9021 14.8637 2.89912 14.8625 2.89555 14.8601C2.89257 14.8589 2.88959 14.8572 2.88661 14.856C2.88304 14.8542 2.87946 14.853 2.87648 14.8512C2.87291 14.8494 2.86993 14.8488 2.86814 14.847C2.86397 14.8452 2.861 14.8435 2.85742 14.8423C2.85385 14.8411 2.85146 14.8399 2.84849 14.8387C2.84491 14.8375 2.84193 14.8357 2.83776 14.8345C2.83538 14.8327 2.8324 14.8315 2.82942 14.8309C2.82585 14.8292 2.82287 14.828 2.8187 14.8262C2.81572 14.8256 2.81274 14.8244 2.81036 14.8226C2.80619 14.8214 2.80321 14.8202 2.79904 14.8178C2.79666 14.8172 2.79427 14.8161 2.79129 14.8149C2.78653 14.8131 2.78295 14.8119 2.77997 14.8101C2.76806 14.8059 2.76389 14.8047 2.76032 14.8029C2.74959 14.7988 2.74542 14.7976 2.74185 14.7958C2.72934 14.7916 2.72278 14.7892 2.71742 14.7881C2.70432 14.7833 2.69121 14.7791 2.6787 14.7755C2.67095 14.7726 2.66559 14.7708 2.66083 14.7696C2.6507 14.7666 2.64653 14.7654 2.64236 14.7642C2.63223 14.7612 2.62806 14.7606 2.62449 14.7595C2.61376 14.7571 2.61019 14.7559 2.60542 14.7547C2.5953 14.7523 2.59172 14.7517 2.58815 14.7499C2.58576 14.7499 2.58278 14.7499 2.57981 14.7487C2.57683 14.7481 2.57385 14.7469 2.56968 14.7463C2.5673 14.7463 2.56432 14.7463 2.56253 14.7452C2.55955 14.7446 2.55538 14.744 2.5524 14.7434C2.54942 14.7428 2.54644 14.7422 2.54466 14.7416C2.54168 14.741 2.5381 14.7398 2.53453 14.7398C2.53155 14.7398 2.52917 14.7392 2.52679 14.7386C2.52321 14.738 2.51964 14.7374 2.51666 14.7368C2.51427 14.7362 2.51189 14.7356 2.50891 14.735C2.50534 14.735 2.50236 14.735 2.49938 14.7338C2.497 14.7338 2.49402 14.7326 2.49104 14.7326C2.48866 14.7326 2.48508 14.7326 2.48151 14.7315C2.47853 14.7315 2.47615 14.7315 2.47376 14.7303C2.47019 14.7303 2.46721 14.7303 2.46423 14.7291C2.46125 14.7291 2.45887 14.7291 2.45589 14.7279C2.45351 14.7279 2.45053 14.7279 2.44815 14.7279C2.44517 14.7279 2.44159 14.7273 2.43802 14.7267C2.43623 14.7267 2.43325 14.7267 2.43028 14.7255C2.4273 14.7255 2.42432 14.7255 2.42193 14.7255C2.39513 14.7231 2.37606 14.7225 2.35819 14.7219H2.3427C2.33436 14.7219 2.33079 14.7219 2.32602 14.7219C2.31828 14.7219 2.31411 14.7219 2.30994 14.7219C2.3016 14.7219 2.29802 14.7219 2.29445 14.7219C2.28611 14.7219 2.28194 14.7219 2.27717 14.7219C2.26943 14.7225 2.26526 14.7225 2.26108 14.7231C2.25453 14.7231 2.24977 14.7243 2.2456 14.7243C2.23964 14.7243 2.23428 14.7255 2.22951 14.7261C2.12228 14.738 2.02398 14.769 1.93581 14.8178C1.77794 14.9042 1.65224 15.0472 1.57003 15.2402C1.5176 15.3629 1.48245 15.5059 1.46875 15.6674L1.72492 15.8151C1.79879 15.1026 2.35521 14.8375 3.03138 15.2277C3.70695 15.6173 4.26039 16.5246 4.33069 17.3194L4.58745 17.4677C4.55349 17.0114 4.3849 16.5217 4.12873 16.0844C4.03222 15.9188 3.9232 15.7603 3.80405 15.6126C3.79869 15.6072 3.79393 15.6006 3.78916 15.5953C3.78261 15.5869 3.77784 15.5822 3.77367 15.5756C3.76712 15.5673 3.76235 15.5625 3.75758 15.5566C3.75103 15.5482 3.74627 15.5434 3.7415 15.5369C3.73554 15.5309 3.73078 15.525 3.72541 15.5184C3.70516 15.4952 3.68431 15.4714 3.66346 15.4487C3.6575 15.4428 3.65512 15.4398 3.65214 15.4368C3.64916 15.4338 3.64618 15.4309 3.6432 15.4273C3.64082 15.4243 3.63784 15.4207 3.63486 15.4183C3.63188 15.4154 3.6295 15.4124 3.62593 15.4094C3.62295 15.4058 3.61937 15.4029 3.61639 15.3993C3.61461 15.3975 3.61163 15.3939 3.60925 15.3921C3.60686 15.3892 3.60329 15.3856 3.60031 15.3826C3.59793 15.379 3.59435 15.3766 3.59197 15.3737C3.58899 15.3701 3.58661 15.3677 3.58363 15.3653C3.58005 15.3618 3.57767 15.3588 3.5741 15.3552C3.57171 15.3528 3.56933 15.3504 3.56635 15.348C3.56278 15.3451 3.5598 15.3415 3.55622 15.3385C3.55325 15.3355 3.55086 15.3332 3.54788 15.3296C3.54491 15.3272 3.54193 15.3236 3.53895 15.3206C3.53597 15.3183 3.53299 15.3159 3.53061 15.3135C3.52703 15.3099 3.52405 15.3063 3.51988 15.3034C3.5175 15.301 3.51512 15.2986 3.51333 15.2962C3.50976 15.292 3.50559 15.2891 3.50201 15.2855C3.49188 15.276 3.48831 15.2724 3.48414 15.2694C3.48176 15.267 3.47937 15.264 3.47759 15.2623C3.47342 15.2593 3.46984 15.2557 3.46567 15.2527C3.45435 15.2432 3.45197 15.2396 3.4472 15.2355C3.43708 15.2259 3.43231 15.2223 3.42814 15.2188C3.41861 15.2098 3.41384 15.2057 3.40848 15.2015C3.39895 15.1926 3.39299 15.1878 3.38703 15.183C3.36797 15.1675 3.34891 15.1515 3.32984 15.136C3.31972 15.1276 3.31495 15.1252 3.31018 15.1211C3.30125 15.1133 3.29589 15.1098 3.29231 15.1062C3.28159 15.0978 3.27682 15.0949 3.27265 15.0919C3.26193 15.0841 3.25776 15.0806 3.25418 15.0782C3.2518 15.0758 3.24942 15.074 3.24644 15.0728C3.24287 15.0692 3.23929 15.0669 3.23512 15.0639C3.23274 15.0621 3.23035 15.0597 3.22738 15.0585C3.2238 15.0555 3.21963 15.0532 3.21606 15.0502C3.21367 15.0478 3.2107 15.0466 3.20891 15.0442C3.20474 15.0412 3.20116 15.0395 3.19699 15.0365C3.19401 15.0347 3.19163 15.0323 3.18865 15.0311C3.18508 15.0287 3.1815 15.0258 3.17793 15.0234C3.17495 15.0216 3.17197 15.0204 3.16899 15.0174C3.16601 15.015 3.16244 15.0126 3.15827 15.0103C3.15589 15.0085 3.15231 15.0073 3.14993 15.0049C3.14576 15.0019 3.14219 15.0001 3.13861 14.9978C3.13623 14.9954 3.13384 14.9942 3.13087 14.9918C3.1267 14.99 3.12312 14.9876 3.11955 14.9846C3.11716 14.9823 3.11419 14.9811 3.1118 14.9799C3.10823 14.9769 3.10406 14.9751 3.10048 14.9721C3.0981 14.9703 3.09572 14.9692 3.09274 14.9674C3.08916 14.965 3.08499 14.9626 3.08082 14.9602C3.07844 14.9584 3.07546 14.9572 3.07308 14.9549C3.06891 14.9531 3.06533 14.9501 3.06116 14.9483C3.04746 14.9394 3.04031 14.9364 3.03436 14.9322L3.03257 14.9316Z" fill="#282828"/>
<path d="M3.03316 14.409C2.67036 14.1993 2.32959 14.1129 2.0347 14.1349C1.75768 14.1564 1.52177 14.2731 1.34603 14.4751C1.23403 14.6038 1.14705 14.7658 1.08807 14.9594C1.0845 14.9731 1.07973 14.9868 1.07675 15.0011C1.03863 15.1394 1.01539 15.2925 1.00824 15.4593C1.00705 15.4932 1.00646 15.5272 1.00586 15.5629C1.01063 15.5671 1.09224 15.6541 1.22688 15.7321C1.2942 15.7714 1.37403 15.8066 1.46101 15.8251C1.46101 15.5969 1.50032 15.3997 1.56943 15.2371C1.65164 15.0446 1.77794 14.9023 1.93581 14.8153C2.02398 14.767 2.12287 14.7354 2.22951 14.7235C2.23487 14.7235 2.23964 14.7223 2.2444 14.7223C2.25036 14.7223 2.25513 14.7211 2.2593 14.7211C2.26585 14.7211 2.27062 14.7211 2.27538 14.72C2.28253 14.72 2.2867 14.72 2.29087 14.72C2.29862 14.7194 2.30219 14.7194 2.30636 14.7194H2.32245C2.33079 14.7194 2.33436 14.7194 2.33853 14.7194C2.34687 14.7194 2.35045 14.7194 2.35521 14.7194C2.37666 14.7194 2.39572 14.7205 2.41479 14.7229C2.441 14.7247 2.44517 14.7253 2.44815 14.7259C2.50236 14.7337 2.50534 14.7343 2.50891 14.7343C2.51964 14.7366 2.52321 14.7372 2.52678 14.7378C2.5381 14.7396 2.54108 14.7402 2.54406 14.7414C2.55538 14.7438 2.55895 14.7444 2.56193 14.745C2.57325 14.7468 2.57623 14.748 2.57921 14.7486C2.59112 14.7509 2.5947 14.7515 2.59827 14.7527C2.60959 14.7557 2.61317 14.7569 2.61674 14.7569C2.62747 14.7605 2.63164 14.7611 2.63581 14.7623C2.64593 14.7652 2.6507 14.7664 2.65487 14.7676C2.66559 14.7706 2.67095 14.7718 2.67572 14.7742C2.69121 14.7783 2.70432 14.7825 2.71683 14.7873C2.72338 14.7891 2.72934 14.7914 2.73529 14.7932C2.74602 14.7974 2.75019 14.7986 2.75376 14.7998C2.76449 14.804 2.76866 14.8051 2.77223 14.8075C2.78355 14.8117 2.78712 14.8129 2.79189 14.8147C2.80321 14.8194 2.80619 14.8212 2.81036 14.8224C2.82227 14.8278 2.82585 14.829 2.82942 14.8308C2.84134 14.8355 2.84431 14.8373 2.84848 14.8385C2.861 14.8439 2.86397 14.8457 2.86814 14.8474C2.88006 14.8534 2.88363 14.8546 2.88721 14.8564C2.89972 14.8623 2.90329 14.8635 2.90687 14.8659C2.91878 14.8719 2.92176 14.8737 2.92534 14.8754C2.93844 14.8814 2.94142 14.8832 2.94559 14.8856C2.9581 14.8909 2.96168 14.8933 2.96525 14.8951C2.97716 14.9023 2.98193 14.9046 2.9855 14.9058C2.99802 14.913 3.00219 14.9154 3.00695 14.9177C3.01946 14.9249 3.02542 14.9285 3.03257 14.932C3.03853 14.9362 3.04567 14.9398 3.05163 14.9434C3.06355 14.9499 3.06772 14.9529 3.07129 14.9553C3.0838 14.963 3.08738 14.9654 3.09155 14.9678C3.10346 14.9755 3.10704 14.9773 3.11061 14.9803C3.12253 14.9874 3.1261 14.9904 3.13027 14.9922C3.14218 15.0005 3.14576 15.0029 3.14993 15.0053C3.16244 15.0131 3.16601 15.0154 3.16899 15.0178C3.1815 15.0262 3.18508 15.0285 3.18865 15.0315C3.20057 15.0399 3.20414 15.0417 3.20831 15.0446C3.21963 15.0536 3.22321 15.056 3.22738 15.0589C3.23929 15.0673 3.24286 15.0697 3.24644 15.0732C3.25776 15.0816 3.26252 15.0845 3.26669 15.0875C3.27682 15.0953 3.28159 15.0982 3.28576 15.1024C3.29648 15.1102 3.30125 15.1137 3.30542 15.1179C3.31495 15.1257 3.31912 15.128 3.32389 15.1322C3.34831 15.1519 3.36737 15.1674 3.38644 15.1822C3.39299 15.1882 3.39835 15.193 3.40431 15.1983C3.41325 15.2055 3.41801 15.2097 3.42278 15.2138C3.43171 15.2222 3.43648 15.2257 3.44065 15.2293C3.45137 15.2388 3.45435 15.2424 3.45852 15.246C3.46925 15.2549 3.47282 15.2591 3.47699 15.2615C3.48771 15.2716 3.49129 15.2752 3.49546 15.2782C3.50499 15.2883 3.50916 15.2913 3.51274 15.2954C3.52346 15.3056 3.52644 15.3085 3.53001 15.3127C3.55861 15.3401 3.56218 15.3443 3.56576 15.3473C3.57648 15.3574 3.57946 15.361 3.58303 15.3645C3.61878 15.4021 3.62235 15.4051 3.62533 15.4086C3.68371 15.4706 3.70456 15.4938 3.72422 15.5171C3.73018 15.5236 3.73554 15.5296 3.74031 15.5355C3.74507 15.5415 3.74984 15.5462 3.75461 15.5528C3.76175 15.5605 3.76593 15.5659 3.7701 15.5713C3.77724 15.5802 3.78201 15.585 3.78618 15.5909C3.79333 15.5993 3.79809 15.6052 3.80346 15.6106C3.9226 15.7577 4.03222 15.9168 4.12873 16.0824C4.41588 16.5751 4.5946 17.1327 4.59281 17.6343C4.59341 17.6343 4.68932 17.732 4.82396 17.8101C4.89128 17.8488 4.96932 17.8833 5.04855 17.8976C5.04975 17.4228 4.92702 16.9117 4.71554 16.4214C4.54098 16.0175 4.30686 15.6285 4.03103 15.2883C3.73673 14.9261 3.39716 14.6193 3.03316 14.4096V14.409Z" fill="#161615"/>
<path d="M5.67203 16.973L4.86719 16.5083L5.21212 17.3406L5.41467 17.4573C5.47306 17.2637 5.56063 17.1011 5.67203 16.9724V16.973Z" fill="#262626"/>
<path d="M7.35425 18.892C7.19221 18.7991 7.06114 18.8736 7.06055 19.0594C7.06055 19.2465 7.19101 19.4735 7.35246 19.5664C7.5145 19.6605 7.64676 19.5849 7.64795 19.3984C7.64795 19.2131 7.51688 18.9862 7.35484 18.892H7.35425Z" fill="#393738"/>
<path d="M6.36119 16.6336L4.03125 15.2878C4.30648 15.628 4.5412 16.0164 4.71576 16.4209L4.86707 16.5085L5.67192 16.9732C5.84766 16.7712 6.08417 16.6545 6.3606 16.6336H6.36119Z" fill="#008FE8"/>
<path d="M7.35972 16.9065C6.99632 16.698 6.65555 16.611 6.36126 16.6336C6.08424 16.6545 5.84832 16.7718 5.67258 16.9732C5.56118 17.1019 5.4736 17.2645 5.41522 17.4581C5.3622 17.6345 5.33301 17.8358 5.33301 18.061C5.33718 18.0658 5.4182 18.1528 5.55343 18.2308C5.62075 18.2689 5.70058 18.3047 5.78756 18.3237C5.78815 18.0956 5.82688 17.8978 5.89598 17.7357C5.9782 17.5433 6.1039 17.4003 6.26177 17.314C6.48636 17.1906 6.7747 17.1811 7.0964 17.3038C7.10295 17.3062 7.10772 17.308 7.11248 17.3098C7.12083 17.314 7.12619 17.3151 7.13036 17.3175C7.13989 17.3217 7.14406 17.3229 7.14823 17.3247C7.15836 17.3288 7.16253 17.3306 7.1667 17.3324C7.17742 17.3372 7.18159 17.339 7.18517 17.3414C7.19648 17.3461 7.20006 17.3479 7.20423 17.3497C7.21495 17.3551 7.21912 17.3563 7.2227 17.3586C7.23461 17.3652 7.23878 17.3664 7.24236 17.3682C7.25427 17.3747 7.25785 17.3759 7.26082 17.3783C7.28406 17.3896 7.28704 17.3914 7.29061 17.3938C7.30372 17.4003 7.30789 17.4027 7.31087 17.4045C7.32397 17.4117 7.32874 17.414 7.33291 17.417C7.34542 17.4236 7.35197 17.4271 7.35853 17.4313C7.36448 17.4349 7.37223 17.4385 7.37818 17.4432C7.3901 17.4504 7.39427 17.4522 7.39784 17.4546C7.40976 17.4623 7.41393 17.4647 7.4181 17.4671C7.43001 17.4748 7.43359 17.4766 7.43716 17.479C7.44967 17.4873 7.45384 17.4885 7.45682 17.4915C7.49852 17.5195 7.5021 17.5207 7.50627 17.5237C7.51818 17.5326 7.52116 17.5344 7.52474 17.5368C7.53665 17.5457 7.54082 17.5481 7.5444 17.5505C7.55572 17.5588 7.55929 17.5618 7.56346 17.5642C7.57478 17.5725 7.57895 17.5749 7.58312 17.5779C7.59384 17.5856 7.59742 17.5886 7.60099 17.5916C7.61172 17.5993 7.61648 17.6035 7.62065 17.6065C7.62959 17.613 7.63435 17.6166 7.63972 17.6208C7.95546 17.8692 8.23724 18.2058 8.45648 18.5805C8.74422 19.0738 8.92175 19.6302 8.92115 20.1318C8.92532 20.1366 9.01707 20.2301 9.1523 20.3076C9.21962 20.3469 9.29707 20.3808 9.3763 20.3945C9.37749 19.9203 9.25477 19.4086 9.04388 18.9189C8.86932 18.515 8.6352 18.1265 8.35937 17.7858C8.06567 17.4236 7.72491 17.1168 7.3615 16.9065H7.35972Z" fill="#161615"/>
<path d="M6.04298 18.4721C6.04059 19.3043 6.62621 20.3171 7.34943 20.7353C8.07386 21.1535 8.66245 20.8181 8.66423 19.9859C8.66423 19.9287 8.66185 19.8721 8.65709 19.8155C8.58738 19.0202 8.03335 18.1129 7.35837 17.7226C6.6834 17.333 6.12638 17.5987 6.05191 18.31C6.04655 18.3619 6.04357 18.4161 6.04298 18.4721ZM6.63931 18.8158C6.6405 18.3619 6.96161 18.179 7.35718 18.4072C7.75216 18.6353 8.07028 19.1882 8.06909 19.6421C8.06849 20.0961 7.74679 20.279 7.35182 20.0514C6.95684 19.8232 6.63812 19.2704 6.63931 18.8164V18.8158Z" fill="black"/>
<path d="M6.63868 18.8163C6.63748 19.2703 6.9562 19.8231 7.35118 20.0513C7.74616 20.2795 8.06726 20.096 8.06845 19.642C8.06964 19.1881 7.75152 18.6352 7.35654 18.4071C6.96157 18.1789 6.64046 18.3618 6.63868 18.8157V18.8163ZM7.06046 19.0594C7.06106 18.8735 7.19212 18.7985 7.35416 18.892C7.5162 18.9855 7.64726 19.2125 7.64726 19.3984C7.64607 19.5848 7.51382 19.6605 7.35178 19.5664C7.19033 19.4734 7.05927 19.2465 7.05986 19.0594H7.06046Z" fill="#5D5D5D"/>
<path d="M11.2202 20.176L11.2154 21.4575L11.2148 21.8304L18.5883 26.087L18.5889 25.7146L18.5925 24.4326L11.2202 20.176Z" fill="#128FDC"/>
<path d="M21.3035 25.2612L8.35751 17.7858C8.06381 17.4236 7.72305 17.1168 7.35965 16.9071C6.99624 16.6974 6.65548 16.611 6.36118 16.6337L4.03124 15.2879C3.73695 14.9257 3.39738 14.6189 3.03338 14.4092C2.67057 14.1995 2.32981 14.1131 2.03492 14.1351L0.387695 13.1843L0.411525 4.62354L21.328 16.6998L21.3035 25.2606V25.2612Z" fill="#1D1D1A"/>
<path d="M0.739854 12.9616L20.8955 24.5976L20.917 16.9393L0.7613 5.30273L0.739258 12.9616H0.739854ZM19.9322 23.6813L19.9513 16.7427C19.9519 16.6713 20.0025 16.6427 20.0651 16.6784C20.127 16.7141 20.1777 16.8011 20.1777 16.8732L20.158 23.8112C20.158 23.8827 20.1068 23.9119 20.0448 23.8761C19.9823 23.8392 19.9316 23.7528 19.9322 23.6807V23.6813ZM19.0541 23.1738L19.0732 16.2358C19.0732 16.1643 19.1238 16.1351 19.187 16.1714C19.2495 16.2072 19.2996 16.2947 19.2996 16.3662L19.2799 23.3042C19.2799 23.3763 19.2287 23.4049 19.1661 23.3692C19.1036 23.3334 19.0541 23.2464 19.0541 23.1744V23.1738ZM18.1754 22.6668L18.195 15.7288C18.195 15.6573 18.2457 15.6281 18.3082 15.6639C18.3708 15.7002 18.4208 15.7872 18.4208 15.8587L18.4006 22.7967C18.4006 22.8687 18.3499 22.8979 18.2874 22.8616C18.2248 22.8252 18.1742 22.7377 18.1748 22.6662L18.1754 22.6668ZM17.2973 22.1598L17.3169 15.2224C17.3169 15.1503 17.3682 15.1217 17.4301 15.1575C17.4927 15.1938 17.5427 15.2808 17.5427 15.3529L17.5231 22.2915C17.5231 22.3624 17.4724 22.3916 17.4105 22.3558C17.3479 22.3195 17.2979 22.2325 17.2979 22.161L17.2973 22.1598ZM16.4185 21.6522L16.4388 14.7148C16.4388 14.6433 16.49 14.6148 16.552 14.6499C16.6145 14.6862 16.6646 14.7732 16.6646 14.8453L16.6449 21.7839C16.6449 21.8554 16.5943 21.8846 16.5317 21.8482C16.4698 21.8125 16.4191 21.7243 16.4191 21.6528L16.4185 21.6522ZM15.5404 21.1453L15.5595 14.2073C15.5595 14.1352 15.6107 14.1072 15.6733 14.1429C15.7358 14.1787 15.7853 14.2662 15.7853 14.3377L15.7656 21.2757C15.7656 21.3472 15.7144 21.3764 15.6518 21.3407C15.5899 21.3043 15.5398 21.2173 15.5398 21.1453H15.5404ZM14.6617 20.6383L14.6814 13.7003C14.682 13.6288 14.7332 13.5996 14.7958 13.636C14.8577 13.6717 14.9083 13.7593 14.9083 13.8308L14.8887 20.7688C14.8887 20.8408 14.8375 20.8694 14.7755 20.8331C14.7123 20.7968 14.6623 20.7098 14.6623 20.6377L14.6617 20.6383ZM13.7836 20.1313L13.8038 13.1939C13.8038 13.1218 13.8545 13.0932 13.9158 13.129C13.979 13.1647 14.029 13.2523 14.029 13.3238L14.0088 20.2624C14.0088 20.3339 13.9581 20.3625 13.8956 20.3261C13.8336 20.291 13.783 20.2034 13.783 20.1319L13.7836 20.1313ZM12.9055 19.6243L12.9251 12.6869C12.9251 12.6149 12.9758 12.5863 13.0383 12.6226C13.1003 12.6577 13.1509 12.7459 13.1509 12.818L13.1307 19.756C13.1307 19.8275 13.0794 19.8561 13.0181 19.8203C12.9555 19.7846 12.9055 19.6976 12.9055 19.6249V19.6243ZM12.0268 19.1174L12.047 12.18C12.047 12.1085 12.0976 12.0787 12.1602 12.1156C12.2233 12.152 12.2728 12.2389 12.2728 12.3104L12.2531 19.2484C12.2531 19.3199 12.2025 19.3491 12.1399 19.3128C12.0774 19.277 12.0273 19.19 12.0273 19.118L12.0268 19.1174ZM11.1486 18.6104L11.1683 11.6724C11.1683 11.6009 11.2189 11.5723 11.2815 11.6081C11.344 11.6432 11.3941 11.7308 11.3941 11.8029L11.3744 18.7414C11.3744 18.8123 11.3232 18.8415 11.2612 18.8052C11.1981 18.7694 11.1486 18.6819 11.1486 18.6104ZM10.2705 18.1028L10.2902 11.1654C10.2902 11.0933 10.3408 11.0647 10.4034 11.1011C10.4659 11.1374 10.516 11.2238 10.516 11.2965L10.4963 18.2339C10.4963 18.306 10.4457 18.334 10.3831 18.2982C10.3211 18.2619 10.2705 18.1749 10.2711 18.1028H10.2705ZM9.39239 17.5964L9.41086 10.6578C9.41086 10.587 9.46209 10.5578 9.52464 10.5935C9.5866 10.6304 9.63724 10.7168 9.63724 10.7889L9.61758 17.7263C9.61758 17.799 9.56634 17.827 9.50379 17.7912C9.44183 17.7555 9.3912 17.6679 9.39239 17.5964ZM8.51308 17.0889L8.53333 10.1509C8.53333 10.0794 8.58456 10.0508 8.64593 10.0865C8.70848 10.1229 8.75852 10.2093 8.75852 10.2813L8.73946 17.2187C8.73946 17.2908 8.68822 17.32 8.62567 17.2837C8.56431 17.2479 8.51308 17.1604 8.51308 17.0883V17.0889ZM7.63436 16.5825L7.65402 9.6439C7.65402 9.57241 7.70525 9.54381 7.76721 9.58015C7.82976 9.6159 7.8798 9.70287 7.8798 9.77496L7.86014 16.7124C7.86014 16.785 7.8095 16.813 7.74636 16.7773C7.685 16.7415 7.63376 16.654 7.63376 16.5825H7.63436ZM6.75683 16.0755L6.77709 9.13752C6.77709 9.06543 6.82713 9.03684 6.88968 9.07258C6.95224 9.10832 7.00228 9.1959 7.00228 9.26798L6.98202 16.2054C6.98202 16.2769 6.93138 16.3061 6.86943 16.2703C6.80687 16.234 6.75624 16.1464 6.75683 16.0749V16.0755ZM5.87812 15.5685L5.89777 8.63054C5.89777 8.55846 5.94901 8.53046 6.01097 8.5656C6.07292 8.60135 6.12356 8.68833 6.12296 8.76101L6.1033 15.699C6.10271 15.7705 6.05267 15.7991 5.99011 15.7633C5.92816 15.7276 5.87752 15.64 5.87752 15.5685H5.87812ZM4.99999 15.0616L5.01965 8.12357C5.01965 8.05148 5.07029 8.02289 5.13284 8.05863C5.1948 8.09497 5.24544 8.18195 5.24544 8.25403L5.22578 15.192C5.22578 15.2641 5.17455 15.2927 5.11199 15.257C5.05004 15.2206 4.9994 15.1336 4.99999 15.0622V15.0616ZM4.12187 14.5546L4.14094 7.61659C4.14153 7.54451 4.19217 7.51591 4.25472 7.55225C4.31608 7.5874 4.36732 7.67438 4.36672 7.74646L4.34766 14.6845C4.34706 14.7559 4.29642 14.7851 4.23387 14.7488C4.17132 14.7125 4.12128 14.6255 4.12128 14.554L4.12187 14.5546ZM3.24256 14.0476L3.26281 7.10961C3.26281 7.03813 3.31405 7.00894 3.3766 7.04528C3.43915 7.08102 3.4892 7.168 3.4892 7.24008L3.47013 14.1775C3.46954 14.2496 3.4189 14.2782 3.35635 14.2424C3.29439 14.2061 3.24315 14.1191 3.24315 14.047L3.24256 14.0476ZM2.36444 13.5406L2.3841 6.60204C2.3841 6.53115 2.43474 6.50196 2.49729 6.5383C2.55984 6.57345 2.60988 6.66162 2.60988 6.73251L2.59022 13.6705C2.59022 13.7426 2.53959 13.7712 2.47703 13.7354C2.41448 13.6991 2.36444 13.6121 2.36444 13.5406ZM1.48632 13.0337L1.50598 6.09566C1.50657 6.02418 1.55721 5.99558 1.61917 6.03132C1.68231 6.06707 1.73236 6.15464 1.73176 6.22613L1.7127 13.1641C1.7127 13.2356 1.66206 13.2648 1.59951 13.2291C1.53695 13.1927 1.48632 13.1057 1.48632 13.0337Z" fill="#2F302B"/>
<path d="M11.2158 21.4574L11.22 20.176L9.04199 18.9189C9.25288 19.4086 9.37561 19.9204 9.37442 20.3946L11.2158 21.458V21.4574Z" fill="#262626"/>
<path d="M21.3924 27.3324L21.396 26.0516L18.5924 24.4324L18.5889 25.7144L21.3924 27.3324Z" fill="#393738"/>
<path d="M21.3044 25.261L8.3584 17.7856C8.63363 18.1258 8.86835 18.5148 9.0429 18.9187L11.2209 20.1758L18.5938 24.4323L21.3974 26.0515L21.3998 25.3146L21.3056 25.261H21.3044Z" fill="#008FE8"/>
<path d="M22.6748 28.0755C22.6724 28.9077 23.258 29.9205 23.9813 30.3381C24.7057 30.7563 25.2943 30.4209 25.2967 29.5893C25.2967 29.5327 25.2943 29.4761 25.2895 29.4183C25.2198 28.6236 24.6652 27.7157 23.9902 27.326C23.3152 26.9364 22.7576 27.2027 22.6837 27.9134C22.6784 27.9653 22.6748 28.0189 22.6748 28.0755ZM23.2706 28.4192C23.2717 27.9659 23.5928 27.7824 23.9878 28.0105C24.3822 28.2387 24.7021 28.7922 24.7009 29.2455C24.6991 29.6995 24.378 29.883 23.9831 29.6548C23.5875 29.4266 23.2688 28.8738 23.2706 28.4198V28.4192Z" fill="black"/>
<path d="M23.9861 28.4948C23.8246 28.4013 23.693 28.4764 23.6924 28.6622C23.6918 28.8493 23.8223 29.0757 23.9843 29.1686C24.1475 29.2627 24.2786 29.1883 24.2786 29.0012C24.2798 28.8153 24.1487 28.5884 23.9861 28.4948Z" fill="#393738"/>
<path d="M23.2705 28.4192C23.2693 28.8732 23.588 29.426 23.983 29.6542C24.378 29.8824 24.6991 29.6989 24.7009 29.2449C24.7015 28.7916 24.3822 28.2381 23.9878 28.01C23.5928 27.7818 23.2717 27.9653 23.2705 28.4186V28.4192ZM23.6923 28.6623C23.6923 28.4764 23.8246 28.4014 23.986 28.4949C24.1486 28.5884 24.2797 28.8154 24.2785 29.0013C24.2785 29.1878 24.1468 29.2628 23.9842 29.1687C23.8222 29.0752 23.6911 28.8494 23.6923 28.6623Z" fill="#5D5D5D"/>
<path d="M24.9151 30.4292C27.5668 28.888 30.219 27.3474 32.8707 25.8056C33.106 25.6692 33.2519 25.3785 33.2531 24.9656C33.2531 24.909 33.2507 24.8518 33.2454 24.7941C33.1757 23.9999 32.621 23.0914 31.9461 22.7018C31.5821 22.4909 31.252 22.4725 31.0137 22.6101L23.0576 27.2348C23.2959 27.096 23.626 27.1157 23.9905 27.3254C24.6661 27.715 25.2202 28.6235 25.2899 29.4176C25.2952 29.4754 25.2976 29.5326 25.297 29.5886C25.2958 30.002 25.1499 30.2927 24.9151 30.4286V30.4292Z" fill="#181A1A"/>
<path d="M21.3018 25.261L21.4096 25.3235L29.2597 20.6369L29.2835 12.0767L21.3274 16.6996L21.3018 25.261Z" fill="#5A5C5B"/>
<path d="M21.7822 23.4631C21.7822 23.4703 21.7822 23.6008 21.7822 23.7014C21.7822 23.8551 21.8096 23.9385 22.2314 24.1828C22.6532 24.4259 22.7152 24.4193 22.7158 24.2567C22.7158 24.094 22.7158 24.007 22.7158 24.0023L21.7822 23.4631Z" fill="#128FDC"/>
<path d="M23.9921 26.5098C22.8763 25.8658 21.969 26.3823 21.9648 27.6638C21.969 27.6685 22.0506 27.7555 22.1853 27.8335C22.2526 27.8723 22.3324 27.908 22.4194 27.9265C22.4194 27.849 22.4236 27.7758 22.4325 27.7049C22.4968 27.1854 22.784 26.8708 23.1873 26.8256C23.1933 26.8256 23.198 26.8244 23.2016 26.8244C23.2076 26.8244 23.2123 26.8232 23.2171 26.8226C23.2236 26.8226 23.2278 26.822 23.2326 26.8214C23.2397 26.8214 23.2439 26.8208 23.2487 26.8208C23.2558 26.8208 23.26 26.8208 23.2647 26.8208C23.2731 26.8208 23.2767 26.8208 23.2808 26.8208H23.2969C23.3053 26.8208 23.3094 26.8208 23.3136 26.8208C23.3356 26.8208 23.3541 26.822 23.3732 26.8238C23.4 26.8267 23.4036 26.8267 23.4071 26.8273C23.4607 26.8345 23.4637 26.8351 23.4673 26.8351C23.4965 26.8404 23.5001 26.841 23.503 26.8416C23.515 26.844 23.5179 26.8446 23.5209 26.8452C23.5316 26.8476 23.5352 26.8482 23.5388 26.8494C23.5501 26.8524 23.5537 26.853 23.5567 26.8536C23.568 26.8565 23.5716 26.8571 23.5757 26.8583C23.587 26.8607 23.59 26.8625 23.5942 26.8637C23.6043 26.8667 23.6091 26.8678 23.6127 26.8684C23.624 26.872 23.6287 26.8738 23.6335 26.8756C23.649 26.8804 23.6621 26.8839 23.6746 26.8887C23.6812 26.8911 23.6871 26.8929 23.6931 26.8947C23.7038 26.8982 23.7074 26.9 23.7116 26.9012C23.7229 26.9054 23.7264 26.9072 23.7306 26.909C23.7419 26.9125 23.7455 26.9143 23.7497 26.9167C23.7616 26.9209 23.7652 26.9221 23.7687 26.9238C23.7801 26.9292 23.7842 26.931 23.7878 26.9322C23.7997 26.9364 23.8027 26.9387 23.8069 26.9399C23.8188 26.9459 23.8224 26.9465 23.8265 26.9483C23.8384 26.9542 23.842 26.9554 23.8456 26.9572C23.8581 26.9632 23.8611 26.965 23.8647 26.9667C23.8772 26.9727 23.8802 26.9745 23.8837 26.9763C23.8968 26.9828 23.8998 26.9846 23.904 26.9858C23.9159 26.993 23.9195 26.9947 23.9236 26.9959C23.9356 27.0025 23.9397 27.0055 23.9439 27.0073C23.9564 27.0138 23.96 27.0168 23.9653 27.0192C23.9779 27.0263 23.9838 27.0293 23.991 27.0341C23.9969 27.037 24.0035 27.0412 24.01 27.0448C24.0219 27.0519 24.0261 27.0543 24.0297 27.0573C24.0416 27.0644 24.0458 27.0674 24.0493 27.0692C24.0619 27.077 24.066 27.0793 24.069 27.0811C24.0809 27.0889 24.0845 27.0913 24.0887 27.0948C24.1006 27.102 24.1041 27.1044 24.1083 27.1067C24.1208 27.1145 24.1238 27.1175 24.1274 27.1193C24.1399 27.1282 24.1429 27.13 24.1464 27.133C24.1584 27.1413 24.1619 27.1437 24.1667 27.1467C24.178 27.1556 24.1816 27.1574 24.1852 27.161C24.1971 27.1693 24.2007 27.1717 24.2048 27.1741C24.2167 27.1836 24.2209 27.1854 24.2251 27.189C24.2358 27.1967 24.2394 27.2009 24.2441 27.2038C24.2549 27.2122 24.259 27.2152 24.2644 27.2193C24.2739 27.2265 24.2781 27.2301 24.2829 27.2336C24.3079 27.2539 24.3264 27.2688 24.3448 27.2849C24.352 27.2908 24.3579 27.2956 24.3633 27.3004C24.3728 27.3087 24.377 27.3123 24.3818 27.3164C24.3919 27.3248 24.3955 27.3284 24.3996 27.3319C24.4098 27.3421 24.4139 27.3456 24.4175 27.3486C24.4282 27.3581 24.4312 27.3617 24.4348 27.3647C24.4461 27.3748 24.4497 27.3784 24.4538 27.382C24.4634 27.3921 24.4675 27.3945 24.4711 27.3987C24.4818 27.4094 24.4848 27.4124 24.4884 27.4153C24.517 27.4433 24.5206 27.4469 24.5241 27.4505C24.5605 27.4874 24.5641 27.491 24.567 27.4946C24.5766 27.5041 24.5807 27.5083 24.5843 27.5118C24.5944 27.5226 24.5974 27.5261 24.6016 27.5297C25.1652 28.1326 25.5542 28.9946 25.5518 29.7375C25.5572 29.7429 25.6489 29.8358 25.7835 29.9133C25.8503 29.952 25.9283 29.9865 26.0069 30.0003C26.0099 28.7176 25.108 27.1568 23.9927 26.5128L23.9921 26.5098Z" fill="#161615"/>
<path d="M22.7033 27.7889C22.5984 27.8175 22.5067 27.8622 22.428 27.9211H22.4209C22.4209 27.3939 22.6217 26.906 23.1894 26.8256C23.1948 26.8244 23.1995 26.8244 23.2049 26.8244C23.2097 26.8244 23.2144 26.8238 23.2204 26.8232C23.2251 26.8232 23.2293 26.8226 23.2365 26.822C23.2412 26.822 23.2454 26.8214 23.2537 26.8208H23.2692C23.274 26.8208 23.2776 26.8208 23.2853 26.8208H23.3014C23.3062 26.8208 23.3103 26.8208 23.3169 26.8208C23.336 26.8208 23.3544 26.822 23.3806 26.8244C23.3836 26.8244 23.386 26.8244 23.389 26.8244C23.3914 26.8256 23.3943 26.8256 23.3973 26.8256C23.3997 26.8256 23.4033 26.8268 23.4069 26.8268C23.4092 26.8268 23.4116 26.8268 23.414 26.8268C23.4176 26.8268 23.4206 26.8274 23.4229 26.8279C23.4259 26.8291 23.4295 26.8291 23.4331 26.8291C23.4348 26.8291 23.4378 26.8291 23.4402 26.8303C23.4438 26.8303 23.4468 26.8315 23.4497 26.8315C23.4533 26.8321 23.4551 26.8327 23.4587 26.8327C23.4611 26.8327 23.4646 26.8339 23.4682 26.8339C23.4712 26.8339 23.4742 26.8351 23.476 26.8351C23.4789 26.8363 23.4825 26.8369 23.4861 26.8369C23.4891 26.8381 23.4908 26.8381 23.4932 26.8393C23.4968 26.8393 23.5004 26.8393 23.5034 26.8405C23.5057 26.8405 23.5081 26.8411 23.5111 26.8422C23.5153 26.8428 23.5183 26.8434 23.5218 26.8446C23.5248 26.8446 23.5272 26.8446 23.5296 26.8464C23.5326 26.8464 23.5361 26.8476 23.5403 26.8482C23.5427 26.8482 23.5457 26.8494 23.5486 26.85C23.5516 26.8512 23.5552 26.8518 23.5659 26.8542C23.5695 26.8554 23.5737 26.856 23.5844 26.8589C23.5885 26.8595 23.5921 26.8613 23.6023 26.8637C23.6058 26.8655 23.6106 26.8667 23.6207 26.8697C23.6261 26.8708 23.6308 26.8726 23.6392 26.875C23.6511 26.8792 23.6642 26.8828 23.6773 26.8875C23.6833 26.8893 23.6892 26.8917 23.7017 26.8965C23.7059 26.8977 23.7095 26.8988 23.7208 26.9036C23.7256 26.9042 23.7285 26.906 23.7399 26.9108C23.744 26.9119 23.7476 26.9131 23.7518 26.9161C23.7548 26.9161 23.7571 26.9173 23.7595 26.9191C23.7631 26.9203 23.7667 26.9221 23.7703 26.9233C23.7726 26.9245 23.7756 26.9257 23.7786 26.9268C23.7816 26.9286 23.7851 26.9304 23.7893 26.9316C23.7923 26.9322 23.7947 26.9346 23.7977 26.9352C23.8012 26.9364 23.8048 26.9382 23.8084 26.9399C23.8108 26.9411 23.8137 26.9429 23.8173 26.9435C23.8203 26.9453 23.8239 26.9465 23.828 26.9483C23.8304 26.9495 23.8334 26.9507 23.8364 26.9525C23.84 26.9542 23.8435 26.9554 23.8471 26.9572C23.8501 26.9584 23.8531 26.9602 23.8554 26.9614C23.859 26.9638 23.8626 26.965 23.8662 26.9674C23.8697 26.9685 23.8721 26.9703 23.8751 26.9715C23.8781 26.9733 23.8817 26.9751 23.8852 26.9763C23.8882 26.9781 23.8918 26.9799 23.8948 26.9811C23.8983 26.9828 23.9013 26.9846 23.9055 26.9858C23.9085 26.987 23.9114 26.9888 23.9144 26.9906C23.918 26.993 23.921 26.9948 23.9251 26.9965C23.9281 26.9983 23.9305 26.9995 23.9341 27.0007C23.9371 27.0031 23.9412 27.0055 23.9454 27.0079C23.9484 27.0091 23.9508 27.0102 23.9525 27.0114C23.9573 27.0138 23.9615 27.0168 23.9722 27.0228C23.9788 27.0263 23.9853 27.0299 23.9925 27.0341C23.9984 27.0371 24.005 27.0412 24.0193 27.0502C24.0234 27.0519 24.0276 27.0543 24.0318 27.0573C24.0342 27.0585 24.0371 27.0609 24.0395 27.0621C24.0437 27.0645 24.0479 27.0674 24.0514 27.0692L24.0604 27.0746C24.064 27.0776 24.0681 27.0794 24.0711 27.0817C24.0741 27.0841 24.0765 27.0853 24.0788 27.0871C24.083 27.0889 24.0866 27.0919 24.0902 27.0948C24.0931 27.0954 24.0955 27.0978 24.0985 27.0996C24.1021 27.102 24.1057 27.1044 24.1098 27.1068C24.1128 27.1085 24.1152 27.1103 24.1182 27.1127C24.1217 27.1151 24.1253 27.1175 24.1289 27.1199C24.1319 27.1222 24.1348 27.1246 24.1378 27.1258C24.1414 27.1282 24.145 27.1306 24.1485 27.1336C24.1521 27.1359 24.1539 27.1371 24.1569 27.1389C24.1605 27.1419 24.164 27.1443 24.1688 27.1473C24.1706 27.1491 24.1736 27.1514 24.1759 27.1526C24.1801 27.1556 24.1837 27.158 24.1873 27.161C24.1902 27.1628 24.1926 27.1645 24.195 27.1663C24.1992 27.1693 24.2028 27.1717 24.2069 27.1741C24.2099 27.1765 24.2123 27.1782 24.2141 27.18C24.2188 27.183 24.223 27.1854 24.2325 27.1937C24.2379 27.1967 24.2415 27.2009 24.2522 27.2086C24.2564 27.2116 24.2611 27.2152 24.2713 27.2223C24.2754 27.2259 24.2796 27.2295 24.2903 27.2378C24.3094 27.2533 24.3279 27.2682 24.3475 27.2849C24.3529 27.2896 24.3588 27.2944 24.369 27.3034C24.3737 27.3075 24.3779 27.3111 24.3886 27.32C24.3928 27.3242 24.3964 27.3272 24.4071 27.3373C24.4113 27.3409 24.4154 27.3439 24.4262 27.354C24.4297 27.357 24.4333 27.3599 24.4369 27.3635C24.4399 27.3659 24.4422 27.3683 24.4446 27.3707C24.4488 27.3742 24.4518 27.3778 24.4631 27.3874C24.4661 27.3909 24.4696 27.3939 24.4738 27.3975C24.4756 27.3999 24.4792 27.4022 24.481 27.4046C24.4845 27.4076 24.4875 27.4106 24.4911 27.4142C24.4935 27.4171 24.4965 27.4189 24.4994 27.4225C24.5024 27.4249 24.5054 27.4279 24.5084 27.4308C24.5114 27.4338 24.5143 27.4362 24.5167 27.4398C24.5197 27.4428 24.5233 27.4457 24.5262 27.4493C24.5286 27.4517 24.5316 27.4541 24.534 27.4571C24.5376 27.46 24.5394 27.4624 24.5429 27.4654C24.5459 27.469 24.5489 27.4714 24.5519 27.4749C24.5542 27.4773 24.5572 27.4803 24.5596 27.4833C24.5626 27.4862 24.5662 27.4898 24.5751 27.4994C24.5787 27.5029 24.5822 27.5071 24.593 27.5172C24.5965 27.5214 24.5995 27.525 24.6085 27.5345C25.1244 28.0862 25.4961 28.866 25.5473 29.5672L25.2924 29.4194C25.2227 28.6247 24.668 27.7168 23.9931 27.3272C23.3592 26.962 22.829 27.1729 22.7051 27.7901L22.7033 27.7889Z" fill="#282828"/>
<path d="M27.9902 31.2334C30.6425 29.6922 33.2941 28.151 35.9463 26.6098C35.9785 26.5902 35.9988 26.5502 35.9994 26.4937L28.0433 31.1172C28.0433 31.1744 28.0224 31.2143 27.9902 31.2334Z" fill="black"/>
<path d="M28.043 31.1172L35.9985 26.4937L35.9997 26.1172L28.0436 30.7401L28.043 31.1172Z" fill="#282828"/>
<path d="M27.8637 30.4273L35.8204 25.8032L35.2383 25.4678L27.2822 30.0907L27.8637 30.4273Z" fill="#282828"/>
<path d="M28.0438 30.7401L35.9999 26.1172C36.0005 26.0147 35.9356 25.892 35.8522 25.8259C35.8414 25.8169 35.8307 25.8098 35.82 25.8032L27.8633 30.4274C27.874 30.4339 27.8853 30.4411 27.896 30.45C27.98 30.5161 28.0444 30.6377 28.0438 30.7407V30.7401Z" fill="black"/>
<path d="M26.5091 29.6453C26.4084 29.5875 26.3274 29.6334 26.3274 29.749L26.3262 30.1261C26.3262 30.1445 26.3286 30.1648 26.3327 30.1851C26.3536 30.2851 26.4239 30.3906 26.5073 30.4382L27.8608 31.2205C27.9615 31.2776 28.0425 31.2318 28.0431 31.1168V30.7397C28.0443 30.6366 27.9799 30.5157 27.8959 30.449C27.8852 30.44 27.8739 30.4329 27.8632 30.4263L27.2817 30.0903L26.5091 29.6447V29.6453Z" fill="#161615"/>
<path d="M27.2818 30.0909L35.238 25.4679C35.2993 25.1951 35.3762 24.9175 35.4447 24.8716L27.4886 29.4957C27.4201 29.5404 27.3432 29.818 27.2812 30.0909H27.2818Z" fill="#C10000"/>
<path d="M35.8545 24.8911C35.8414 24.8863 35.5977 24.7827 35.4542 24.8661L27.498 29.4896C27.6416 29.4056 27.8853 29.5105 27.8984 29.5152C30.2855 28.1278 33.4674 26.2786 35.8545 24.8911Z" fill="#393738"/>
<path d="M35.8522 25.8258C35.854 25.1657 35.8546 24.9054 35.8546 24.8911L27.8985 29.5153C27.8985 29.529 27.8985 29.7899 27.8955 30.4494C30.282 29.0619 33.4651 27.2127 35.8516 25.8258H35.8522Z" fill="#393738"/>
<path d="M27.8988 29.5153C27.8857 29.5106 27.6319 29.4021 27.4895 29.4957C27.421 29.5403 27.3442 29.818 27.2822 30.0908L27.8637 30.4268C27.8744 30.4334 27.8857 30.4405 27.8964 30.4494C27.8988 29.7894 27.8988 29.529 27.8994 29.5153H27.8988Z" fill="#181A1A"/>
<path d="M33.6507 20.5125C33.6501 20.5089 33.6376 20.4351 33.6143 20.301L25.6582 24.9246C25.682 25.0586 25.6939 25.1319 25.6945 25.1355C28.0811 23.7486 31.2635 21.8988 33.6507 20.5119V20.5125Z" fill="#161615"/>
<path d="M22.8488 19.5891L30.8049 14.9655C30.3408 14.698 29.8451 14.4538 29.3721 14.3066L21.416 18.9296C21.889 19.0773 22.3847 19.3216 22.8488 19.5891Z" fill="#0087DA"/>
<path d="M21.3276 16.6998L29.2837 12.0769L8.36665 0L0.411133 4.62414L21.3276 16.6998Z" fill="#747675"/>
<path d="M21.3432 16.3227L28.6684 12.0584L8.37393 0.393799L1.00879 4.67062L21.3432 16.3227Z" fill="#575857"/>
<path d="M1.15892 4.757L1.00879 4.67062L8.37393 0.393799L28.6684 12.0584L28.5534 12.1257L8.40908 0.546904L1.15892 4.757Z" fill="#1E1E1D"/>
<path d="M22.0521 19.8983C21.8829 19.7994 21.8036 19.8137 21.803 20.0419C21.803 20.1533 21.7971 22.2818 21.7959 22.6381C21.7959 22.7697 21.8144 22.908 22.0664 23.0533C22.3178 23.1987 23.7201 24.0077 23.9132 24.1191C23.959 24.1453 23.9995 24.1703 24.0347 24.1918C24.1497 24.2579 24.2104 24.2752 24.211 24.1257C24.211 23.9297 23.9465 21.5318 23.9042 21.2607C23.8613 20.9885 23.7565 20.883 23.5253 20.749C23.2948 20.6161 22.2219 19.9972 22.0515 19.8989L22.0521 19.8983Z" fill="#82C0CB"/>
<path d="M27.2121 26.6778L35.1682 22.0542C34.5629 21.4448 33.6973 20.5583 33.6514 20.5125L25.6953 25.136C25.7406 25.1831 26.6068 26.0689 27.2121 26.6778Z" fill="#0087DA"/>
<path d="M27.9429 29.5106C30.5951 27.9688 33.2468 26.4277 35.899 24.8865C35.9187 24.8752 35.9377 24.8478 35.9377 24.7816C35.9383 24.6476 35.9401 23.8624 35.9413 23.4615C35.9425 23.0605 35.7298 22.6203 35.168 22.0549L27.2119 26.6785C27.7743 27.2444 27.9864 27.6841 27.9846 28.085C27.9834 28.4865 27.9816 29.2723 27.981 29.4058C27.981 29.4713 27.9625 29.4993 27.9423 29.5112L27.9429 29.5106Z" fill="#23A8FA"/>
<path d="M32.6208 17.0149C29.9691 18.5567 27.3175 20.0973 24.6658 21.6384C24.614 21.6682 24.5938 21.7439 24.5938 21.8714C24.5938 21.9476 24.6003 22.0406 24.611 22.1543C24.648 22.5565 24.8017 23.8552 24.8475 24.131C24.894 24.4074 25.0507 24.6064 25.255 24.7238C25.4111 24.8143 25.5857 24.893 25.6595 24.9251L33.6156 20.3016C33.5412 20.2694 33.366 20.1902 33.2111 20.1008C33.0068 19.9829 32.8501 19.7845 32.8042 19.5081C32.7584 19.2322 32.6041 17.9335 32.5665 17.5308C32.5564 17.4176 32.5499 17.3235 32.5505 17.2484C32.5505 17.1209 32.5707 17.0459 32.622 17.0155L32.6208 17.0149Z" fill="#161615"/>
<path d="M24.9574 21.4747C24.874 21.4294 24.759 21.377 24.6434 21.3585C24.4897 21.3335 24.4391 21.4181 24.4385 21.6373C24.4385 21.7243 24.4456 21.8303 24.4575 21.9602C24.5004 22.4195 24.6756 23.8993 24.728 24.2145C24.7804 24.529 24.9597 24.7548 25.1921 24.8894C25.4244 25.0235 25.6812 25.1307 25.6949 25.1361C25.6937 25.1325 25.6824 25.0592 25.6586 24.9252C25.5847 24.893 25.4101 24.8144 25.254 24.7238C25.0497 24.6065 24.893 24.4075 24.8466 24.1311C24.8007 23.8552 24.647 22.5565 24.6101 22.1544C24.5993 22.0406 24.5928 21.9471 24.5928 21.8714C24.5928 21.679 24.6386 21.6051 24.7727 21.6272C24.8597 21.6409 24.9478 21.6766 25.0163 21.7118C25.0038 21.6582 24.9907 21.6069 24.9776 21.5575C24.9699 21.5283 24.9627 21.5009 24.9568 21.4747H24.9574Z" fill="#161615"/>
<path d="M21.3922 27.3324L21.693 27.5063L21.9653 27.663C21.9695 26.3816 22.8768 25.8657 23.9926 26.509C25.1084 27.153 26.0104 28.7139 26.0068 29.9965C26.1069 30.0537 26.2177 30.118 26.3321 30.1842C26.3279 30.1645 26.3255 30.1437 26.3255 30.1252L26.3267 29.7481C26.3267 29.6325 26.4083 29.5866 26.5084 29.6444L27.2811 30.09C27.3425 29.8172 27.4193 29.5396 27.4884 29.4949C27.6314 29.4014 27.8846 29.5098 27.8977 29.5146C27.9019 29.5158 27.9799 29.5378 27.9799 29.4049C27.9805 29.2715 27.9829 28.4857 27.9835 28.0842C27.9847 27.6833 27.7726 27.2436 27.2108 26.6776C26.6055 26.0688 25.7393 25.1823 25.694 25.1359C25.6803 25.1305 25.4236 25.0233 25.1912 24.8892C24.9583 24.7546 24.7796 24.5288 24.7272 24.2143C24.6747 23.8991 24.4996 22.4193 24.4567 21.96C24.4448 21.8307 24.4376 21.7241 24.4376 21.6371C24.4382 21.4179 24.4895 21.3333 24.6426 21.3583C24.7575 21.3767 24.8731 21.4286 24.9565 21.4744C24.8362 20.9853 24.8862 20.9639 24.2422 20.5022C23.8782 20.2407 23.3844 19.8993 22.8476 19.5889C22.3835 19.3214 21.8879 19.0772 21.4148 18.9294L21.3976 25.3146L21.3952 26.0515L21.3916 27.3324H21.3922ZM21.7812 23.7013C21.7812 23.6012 21.7812 23.4702 21.7812 23.463L22.7147 24.0022C22.7147 24.0063 22.7147 24.0939 22.7147 24.2566C22.7141 24.4192 22.6522 24.4257 22.2304 24.1827C21.8086 23.9384 21.7812 23.8544 21.7812 23.7013ZM21.677 22.6832C21.6782 22.2954 21.6847 19.9839 21.6853 19.8624C21.6859 19.6157 21.7735 19.6008 21.9623 19.7099C22.1524 19.8189 23.3438 20.5082 23.6012 20.6559C23.8586 20.8048 23.9747 20.9216 24.0224 21.2177C24.0695 21.5126 24.3655 24.1219 24.3643 24.3352C24.3643 24.4966 24.297 24.4776 24.1689 24.4037C24.129 24.3811 24.0838 24.3537 24.0325 24.3239C23.8181 24.2 22.2584 23.2998 21.9778 23.1372C21.6984 22.9757 21.677 22.8256 21.677 22.6832Z" fill="#008FE8"/>
<path d="M21.6768 22.6828C21.6768 22.8246 21.6976 22.9753 21.9776 23.1368C22.2582 23.2994 23.8178 24.1996 24.0323 24.3235C24.0835 24.3533 24.1288 24.3807 24.1687 24.4033C24.2968 24.4772 24.3641 24.4962 24.3641 24.3348C24.3653 24.1215 24.0693 21.5122 24.0222 21.2173C23.9745 20.9218 23.8584 20.8044 23.601 20.6555C23.3442 20.5072 22.1522 19.8185 21.9621 19.7095C21.7733 19.6004 21.6863 19.6153 21.6851 19.862C21.6851 19.9835 21.6785 22.295 21.6768 22.6828ZM21.7959 22.6375C21.7971 22.2813 21.8031 20.1527 21.8031 20.0413C21.8037 19.8131 21.8829 19.7988 22.0521 19.8977C22.2225 19.9954 23.2954 20.615 23.5259 20.7478C23.7565 20.8819 23.8613 20.9873 23.9048 21.2596C23.9471 21.5306 24.2122 23.9291 24.2116 24.1245C24.211 24.274 24.1503 24.2568 24.0353 24.1906C24.0001 24.1698 23.9596 24.1448 23.9138 24.1179C23.7207 24.0065 22.3184 23.1975 22.067 23.0522C21.815 22.9062 21.7959 22.7686 21.7965 22.6369L21.7959 22.6375Z" fill="#161615"/>
<path d="M25.6582 24.9251L33.6143 20.3016C33.5131 19.7237 33.2211 18.0931 32.9733 17.0881L25.0166 21.7117C25.265 22.7173 25.5575 24.3472 25.6582 24.9251Z" fill="#83C8D9"/>
<path d="M25.0173 21.7117C24.9488 21.6765 24.86 21.6408 24.7737 21.6271C24.6396 21.605 24.5943 21.6789 24.5938 21.8713C24.5938 21.9476 24.6003 22.0405 24.611 22.1543C24.648 22.5564 24.8017 23.8551 24.8475 24.131C24.894 24.4074 25.0507 24.6064 25.255 24.7237C25.4111 24.8143 25.5857 24.8929 25.6595 24.9251C25.5588 24.3472 25.2669 22.7167 25.0179 21.7117H25.0173Z" fill="#83C8D9"/>
<path d="M25.0166 21.7117L32.9733 17.0882C32.9596 17.0352 32.9471 16.9827 32.934 16.9339C32.9263 16.9041 32.9197 16.8773 32.9131 16.8511L24.957 21.4746C24.963 21.5008 24.9707 21.5282 24.9779 21.5574C24.991 21.6069 25.0041 21.6581 25.0166 21.7117Z" fill="#161615"/>
<path d="M24.9576 21.4746L32.9137 16.8511C32.7933 16.362 32.8434 16.3405 32.1994 15.8788C31.8354 15.6173 31.3415 15.276 30.8047 14.9656L22.8486 19.5891C23.3854 19.8995 23.8793 20.2409 24.2433 20.5024C24.8867 20.9641 24.8372 20.9861 24.9576 21.4746Z" fill="#23A8FA"/>
<path d="M35.0697 25.3982L34.244 24.0715C34.244 24.0715 34.1511 23.8898 33.886 23.9828L29.9779 26.3026C29.9779 26.3026 29.6359 26.5647 29.5579 26.7982C29.4805 27.0318 29.1367 28.81 29.1367 28.81L35.0697 25.3988V25.3982Z" fill="black"/>
<path d="M34.9173 25.4655L34.1488 24.2299C34.1488 24.2299 34.0618 24.0601 33.8152 24.1471L30.1746 26.3079C30.1746 26.3079 29.8565 26.5515 29.7838 26.7696C29.7117 26.9864 29.3906 28.6438 29.3906 28.6438L34.9173 25.4655Z" fill="#262D3A"/>
<path d="M34.7324 25.1699L29.4756 28.204C29.4923 28.1212 29.5107 28.0307 29.5292 27.9365L34.624 24.9954L34.733 25.1699H34.7324Z" fill="#262D3A"/>
<path d="M34.5332 24.8501L29.5742 27.7138C29.5927 27.622 29.6112 27.5303 29.6296 27.4415L34.4235 24.6743L34.5332 24.8501Z" fill="#262D3A"/>
<path d="M34.6241 24.9956L29.5293 27.9367C29.5442 27.8641 29.5591 27.789 29.5746 27.7133L34.5335 24.8496L34.6241 24.995V24.9956Z" fill="black"/>
<path d="M34.9163 25.4655L29.3896 28.6438C29.3896 28.6438 29.4028 28.5788 29.4224 28.4752L34.8419 25.3469L34.9157 25.4661L34.9163 25.4655Z" fill="#262D3A"/>
<path d="M34.8423 25.3469L29.4229 28.4751C29.4371 28.4018 29.4556 28.3089 29.4759 28.204L34.7327 25.1699L34.8423 25.3469Z" fill="black"/>
<path d="M34.4238 24.6737L29.6299 27.4409C29.6478 27.3522 29.6668 27.2664 29.6835 27.1871L34.3219 24.5093L34.4238 24.6737Z" fill="black"/>
<path d="M29.783 26.7701C29.7955 26.7314 29.8164 26.6921 29.842 26.654L34.1135 24.187C34.1379 24.2102 34.148 24.2305 34.148 24.2305L34.2112 24.3312L29.7461 26.909C29.7616 26.8446 29.7741 26.7964 29.783 26.7701Z" fill="black"/>
<path d="M34.2112 24.3313L34.322 24.5094L29.6836 27.1873C29.7068 27.0794 29.7283 26.9835 29.7455 26.9091L34.2106 24.3313H34.2112Z" fill="#262D3A"/>
<path d="M30.1736 26.3079L33.8142 24.1472C33.9756 24.09 34.0686 24.1436 34.1133 24.1865L29.8418 26.6535C29.9586 26.4729 30.1736 26.3079 30.1736 26.3079Z" fill="#262D3A"/>
<path d="M28.1602 28.1814C28.1602 28.5466 28.4157 28.6938 28.7315 28.5115C29.0466 28.3298 29.3028 27.8865 29.3028 27.5219C29.3028 27.1574 29.0466 27.0102 28.7315 27.1931C28.4157 27.3748 28.1602 27.8174 28.1602 28.1814Z" fill="black"/>
<path d="M28.2734 28.1165C28.2734 28.4084 28.4778 28.5258 28.7304 28.3804C28.983 28.2338 29.1873 27.88 29.1873 27.5881C29.1873 27.2955 28.9824 27.1782 28.7304 27.3235C28.4778 27.4695 28.2728 27.824 28.2734 28.1159V28.1165Z" fill="#168DD7"/>
<path d="M28.1719 29.1335C28.1719 29.2836 28.2779 29.345 28.4084 29.2699C28.5394 29.1949 28.6455 29.0114 28.6455 28.8601C28.6455 28.7088 28.54 28.648 28.4084 28.7231C28.2779 28.7993 28.1719 28.9828 28.1719 29.1341V29.1335Z" fill="black"/>
<path d="M28.2188 29.1055C28.2188 29.2264 28.3033 29.2759 28.4082 29.2157C28.513 29.1544 28.5982 29.0078 28.5982 28.8869C28.5982 28.7659 28.513 28.7165 28.4082 28.7779C28.3039 28.8374 28.2188 28.9852 28.2188 29.1055Z" fill="#CE3120"/>
<path d="M35.3535 24.9258C35.3535 25.0759 35.459 25.1373 35.59 25.0616C35.7217 24.9865 35.8277 24.8031 35.8277 24.6517C35.8277 24.501 35.7217 24.4402 35.59 24.5153C35.459 24.591 35.3535 24.7751 35.3535 24.9258Z" fill="black"/>
<path d="M35.4004 24.8978C35.4004 25.0193 35.4856 25.0682 35.5898 25.0074C35.6953 24.9467 35.7799 24.7995 35.7799 24.6786C35.7799 24.5576 35.6947 24.5088 35.5898 24.569C35.4856 24.6291 35.4004 24.7763 35.4004 24.8972V24.8978Z" fill="#CE3120"/>
<path d="M34.6367 24.2859C34.6367 24.6499 34.8923 24.7976 35.2074 24.6153C35.5232 24.4336 35.7788 23.9904 35.7788 23.6264C35.7788 23.2618 35.5232 23.1147 35.2074 23.297C34.8923 23.4793 34.6367 23.9213 34.6367 24.2859Z" fill="black"/>
<path d="M34.751 24.2203C34.751 24.5122 34.9559 24.6302 35.2085 24.4848C35.4611 24.3394 35.666 23.9844 35.666 23.6925C35.666 23.4006 35.4617 23.2826 35.2085 23.4286C34.9553 23.5745 34.751 23.929 34.751 24.2203Z" fill="#168DD7"/>
<g style="mix-blend-mode:screen">
<path d="M29.5348 21.5473C31.5186 20.6811 32.8537 18.9833 32.893 17.4504L25.498 21.7308C26.5525 22.2229 28.049 22.1955 29.5348 21.5473Z" fill="#83C8D9"/>
</g>
<path d="M31.316 28.3281L33.9784 26.8L33.9659 28.1131L31.3154 29.6525L31.316 28.3281Z" fill="black"/>
<path d="M31.4381 28.3734L33.855 26.98L33.8443 28.069L31.4375 29.4726L31.4381 28.3734Z" fill="#85BFFF"/>
</g>
<defs>
<clipPath id="clip0_414_11867">
<rect width="36" height="31.2454" fill="white"/>
</clipPath>
</defs>
</svg>
