<?xml version="1.0" encoding="iso-8859-1"?>
<!-- Uploaded to: SVG Repo, www.svgrepo.com, Generator: SVG Repo Mixer Tools -->
<svg version="1.1" id="Layer_1" xmlns="http://www.w3.org/2000/svg" xmlns:xlink="http://www.w3.org/1999/xlink" 
	 viewBox="0 0 512 512" xml:space="preserve">
<g>
	<path style="fill:#73AFD6;" d="M177.066,282.913H31.275C14.074,282.913,0,268.839,0,251.638l0,0
		c0-5.947,4.821-10.768,10.768-10.768h0.794c4.429,0,8.292,2.76,10.025,6.837c2.682,6.314,8.956,10.772,16.219,10.772h137.661
		L177.066,282.913z"/>
	<path style="fill:#73AFD6;" d="M334.934,282.913h145.791c17.201,0,31.275-14.074,31.275-31.275l0,0
		c0-5.947-4.821-10.768-10.768-10.768h-0.794c-4.429,0-8.292,2.76-10.025,6.837c-2.682,6.314-8.956,10.772-16.219,10.772h-137.66
		L334.934,282.913z"/>
</g>
<g>
	<rect x="156.244" y="258.476" style="fill:#174F79;" width="17.549" height="24.434"/>
	<rect x="337.847" y="258.476" style="fill:#174F79;" width="17.549" height="24.434"/>
	<path style="fill:#174F79;" d="M270.751,353.477v33.212c0,9.792-8.011,17.804-17.804,17.804l0,0
		c-9.792,0-17.804-8.011-17.804-17.804v-33.212H270.751z"/>
	<path style="fill:#174F79;" d="M270.751,337.295v33.212c0,9.792-8.011,17.804-17.804,17.804l0,0
		c-9.792,0-17.804-8.011-17.804-17.804v-33.212H270.751z"/>
	<path style="fill:#174F79;" d="M211.601,172.244h-35.118c-7.613,0-13.842-6.229-13.842-13.842l0,0
		c0-7.613,6.229-13.842,13.842-13.842h55.979h44.333h55.979c7.613,0,13.842,6.229,13.842,13.842l0,0
		c0,7.613-6.229,13.842-13.842,13.842h-35.118H211.601z"/>
	<path style="fill:#174F79;" d="M230.512,160.218L247.47,98.84c2.341-8.471,14.353-8.471,16.693,0l16.959,61.378H230.512z"/>
</g>
<path style="fill:#73AFD6;" d="M346.618,265.857c0,50.148-40.653,90.801-90.801,90.801s-90.801-40.653-90.801-90.801
	s40.653-107.455,90.801-107.455S346.618,215.709,346.618,265.857z"/>
<circle style="fill:#FFFFFF;" cx="255.812" cy="289.583" r="35"/>
<path style="fill:#D3EFFD;" d="M284.793,225.294h-57.952c-6.23,0-10.631-6.1-8.666-12.012l4.492-13.516
	c1.24-3.733,4.732-6.252,8.666-6.252h48.969c3.934,0,7.425,2.519,8.666,6.252l4.492,13.516
	C295.424,219.193,291.023,225.294,284.793,225.294z"/>
<circle style="fill:#174F79;" cx="112.138" cy="319.738" r="36.833"/>
<circle style="fill:#D3EFFD;" cx="112.138" cy="319.738" r="10.989"/>
<circle style="fill:#174F79;" cx="399.862" cy="319.738" r="36.833"/>
<circle style="fill:#D3EFFD;" cx="399.862" cy="319.738" r="10.989"/>
<g>
	<circle style="fill:#174F79;" cx="255.812" cy="289.583" r="10.269"/>
	<path style="fill:#174F79;" d="M347.651,419.514H159.658c-4.328,0-7.837-3.508-7.837-7.837c0-4.329,3.509-7.837,7.837-7.837
		h187.993c4.329,0,7.837,3.508,7.837,7.837C355.488,416.006,351.98,419.514,347.651,419.514z"/>
	<polygon style="fill:#174F79;" points="248.873,193.514 273.639,193.514 261.256,225.294 237.995,225.294 	"/>
	<path style="opacity:0.28;fill:#174F79;enable-background:new    ;" d="M255.817,340.075c-47.364,0-86.252-36.267-90.423-82.546
		c-0.246,2.816-0.377,5.622-0.377,8.405c0,50.148,40.653,90.801,90.801,90.801s90.801-40.653,90.801-90.801
		c0-2.783-0.133-5.589-0.377-8.405C342.069,303.808,303.181,340.075,255.817,340.075z"/>
</g>
</svg>